<?xml version="1.0" encoding="utf-8"?>
<svg version="1.1" xmlns:xlink="http://www.w3.org/1999/xlink" width="43px" height="43px" xmlns="http://www.w3.org/2000/svg">
  <g transform="matrix(1 0 0 1 -170 -3694 )">
    <path d="M 42.9668050078125 21.4599511689453  C 42.9667620498047 33.3117886279297  33.3553395654297 42.9194725898438  21.5004512060547 42.9194725898438  C 9.6445744765625 42.9194725898438  0.0331949921875023 33.3117026699219  0.0331949921875023 21.4599511269531  C 0.0331949921875 9.60776991992187  9.6445744765625 0  21.5004512060547 0  C 33.3553825654297 0  42.9668050078125 9.60776991992187  42.9668050078125 21.4599511689453  Z M 38.9417669960938 21.4599941689453  C 38.9417239960937 11.8297074501953  31.1329293710938 4.02396376757812  21.5004512060547 4.02396376757812  C 11.8680589570313 4.02396376757812  4.05810412988281 11.8296644921875  4.05810412988281 21.4599941269531  C 4.05810412988281 25.9626962949219  5.78067724316406 30.0539094589844  8.58495592089844 33.1480696132813  C 11.1103966894531 31.9264079091797  10.1833002285156 32.9429696914063  13.4884903154297 31.5828128398438  C 16.8705122900391 30.1933069345703  17.6713603310547 29.7082947753906  17.6713603310547 29.7082947753906  L 17.7039752011719 26.5045159472656  C 17.7039752011719 26.5045159472656  16.4371081513672 25.5433006660156  16.0434520537109 22.5285506357422  C 15.249995015625 22.7564251464844  14.9890759287109 21.6051926552734  14.9416790527344 20.8728402128906  C 14.8996105654297 20.1647233095703  14.4828361308594 17.9549035908203  15.4500243808594 18.1542883759766  C 15.2520575878906 16.6784969658203  15.1101248339844 15.3473455039063  15.1805540888672 14.6423225009766  C 15.4225660253906 12.1673725087891  17.8249381904297 9.58147176660157  21.5258039892578 9.39257184277344  C 25.8789245683594 9.58095610253907  27.6036462119141 12.1652669365234  27.8456581484375 14.6402599287109  C 27.9162163193359 15.3457555957031  27.7604898876953 16.6773797636719  27.5626520107422 18.1505929375  C 28.5295394707031 17.9537863886719  28.10975709375 20.1603832910156  28.0624031757813 20.8685861523438  C 28.0192174443359 21.6009386367188  27.7518956826172 22.7480028994141  26.9618333769531 22.5206440527344  C 26.5662006230469 25.535308125  25.2992046572266 26.4888316132813  25.2992046572266 26.4888316132813  L 25.3296709970703 29.6770549814453  C 25.3296709970703 29.6770549814453  26.1304760380859 30.1300968085938  29.5124980546875 31.5202043359375  C 32.8176451835937 32.8802322294922  31.8894744785156 31.9237437568359  34.4161613652344 33.1480696552734  C 37.2192368828125 30.0538235429688  38.9417669960938 25.9631260429688  38.9417669960938 21.4599941689453  Z " fill-rule="nonzero" fill="#f2ba4e" stroke="none" transform="matrix(1 0 0 1 170 3694 )" />
  </g>
</svg>