<?xml version="1.0" encoding="utf-8"?>
<svg version="1.1" xmlns:xlink="http://www.w3.org/1999/xlink" width="19px" height="16px" xmlns="http://www.w3.org/2000/svg">
  <g transform="matrix(1 0 0 1 -160 -100 )">
    <path d="M 17.21875 14.2272727272727  C 17.431891025641 14.0151515151515  17.5384615384615 13.7575757575758  17.5384615384615 13.4545454545455  L 17.5384615384615 5.45454545454546  C 17.5384615384615 5.15151515151515  17.431891025641 4.89393939393939  17.21875 4.68181818181818  C 17.005608974359 4.46969696969697  16.7467948717949 4.36363636363636  16.4423076923077 4.36363636363636  L 8.40384615384615 4.36363636363636  C 8.09935897435897 4.36363636363636  7.84054487179487 4.25757575757576  7.62740384615385 4.04545454545455  C 7.41426282051282 3.83333333333333  7.30769230769231 3.57575757575757  7.30769230769231 3.27272727272727  L 7.30769230769231 2.54545454545455  C 7.30769230769231 2.24242424242424  7.2011217948718 1.98484848484848  6.98798076923077 1.77272727272727  C 6.77483974358974 1.56060606060606  6.51602564102564 1.45454545454546  6.21153846153846 1.45454545454546  L 2.55769230769231 1.45454545454546  C 2.25320512820513 1.45454545454546  1.99439102564103 1.56060606060606  1.78125 1.77272727272727  C 1.56810897435897 1.98484848484848  1.46153846153846 2.24242424242424  1.46153846153846 2.54545454545455  L 1.46153846153846 13.4545454545455  C 1.46153846153846 13.7575757575758  1.56810897435897 14.0151515151515  1.78125 14.2272727272727  C 1.99439102564103 14.4393939393939  2.25320512820513 14.5454545454545  2.55769230769231 14.5454545454545  L 16.4423076923077 14.5454545454545  C 16.7467948717949 14.5454545454545  17.005608974359 14.4393939393939  17.21875 14.2272727272727  Z M 18.2463942307692 3.65909090909091  C 18.7487980769231 4.15909090909091  19 4.75757575757576  19 5.45454545454546  L 19 13.4545454545455  C 19 14.1515151515152  18.7487980769231 14.75  18.2463942307692 15.25  C 17.7439903846154 15.75  17.1426282051282 16  16.4423076923077 16  L 2.55769230769231 16  C 1.8573717948718 16  1.25600961538462 15.75  0.753605769230769 15.25  C 0.251201923076923 14.75  0 14.1515151515152  0 13.4545454545455  L 0 2.54545454545455  C 0 1.84848484848485  0.251201923076923 1.25  0.753605769230769 0.75  C 1.25600961538462 0.25  1.8573717948718 0  2.55769230769231 0  L 6.21153846153846 0  C 6.91185897435898 0  7.51322115384615 0.25  8.015625 0.75  C 8.51802884615385 1.25  8.76923076923077 1.84848484848485  8.76923076923077 2.54545454545455  L 8.76923076923077 2.90909090909091  L 16.4423076923077 2.90909090909091  C 17.1426282051282 2.90909090909091  17.7439903846154 3.15909090909091  18.2463942307692 3.65909090909091  Z " fill-rule="nonzero" fill="#000000" stroke="none" transform="matrix(1 0 0 1 160 100 )" />
  </g>
</svg>