<?xml version="1.0" encoding="utf-8"?>
<svg version="1.1" xmlns:xlink="http://www.w3.org/1999/xlink" width="16px" height="17px" xmlns="http://www.w3.org/2000/svg">
  <g transform="matrix(1 0 0 1 -150 -202 )">
    <path d="M 1.23076923076923 6  L 1.23076923076923 15.7857142857143  L 14.7692307692308 15.7857142857143  L 14.7692307692308 6  L 1.23076923076923 6  Z M 4.83653846153846 4.46819196428571  C 4.89423076923077 4.41127232142857  4.92307692307692 4.33854166666667  4.92307692307692 4.25  L 4.92307692307692 1.51785714285714  C 4.92307692307692 1.42931547619047  4.89423076923077 1.35658482142857  4.83653846153846 1.29966517857143  C 4.77884615384615 1.24274553571429  4.70512820512821 1.21428571428571  4.61538461538462 1.21428571428571  L 4 1.21428571428571  C 3.91025641025641 1.21428571428571  3.83653846153846 1.24274553571429  3.77884615384615 1.29966517857143  C 3.72115384615385 1.35658482142857  3.69230769230769 1.42931547619047  3.69230769230769 1.51785714285714  L 3.69230769230769 4.25  C 3.69230769230769 4.33854166666667  3.72115384615385 4.41127232142857  3.77884615384615 4.46819196428571  C 3.83653846153846 4.52511160714286  3.91025641025641 4.55357142857143  4 4.55357142857143  L 4.61538461538462 4.55357142857143  C 4.70512820512821 4.55357142857143  4.77884615384615 4.52511160714286  4.83653846153846 4.46819196428571  Z M 12.2211538461538 4.46819196428571  C 12.2788461538462 4.41127232142857  12.3076923076923 4.33854166666667  12.3076923076923 4.25  L 12.3076923076923 1.51785714285714  C 12.3076923076923 1.42931547619047  12.2788461538462 1.35658482142857  12.2211538461538 1.29966517857143  C 12.1634615384615 1.24274553571429  12.0897435897436 1.21428571428571  12 1.21428571428571  L 11.3846153846154 1.21428571428571  C 11.2948717948718 1.21428571428571  11.2211538461538 1.24274553571429  11.1634615384615 1.29966517857143  C 11.1057692307692 1.35658482142857  11.0769230769231 1.42931547619047  11.0769230769231 1.51785714285714  L 11.0769230769231 4.25  C 11.0769230769231 4.33854166666667  11.1057692307692 4.41127232142857  11.1634615384615 4.46819196428571  C 11.2211538461538 4.52511160714286  11.2948717948718 4.55357142857143  11.3846153846154 4.55357142857143  L 12 4.55357142857143  C 12.0897435897436 4.55357142857143  12.1634615384615 4.52511160714286  12.2211538461538 4.46819196428571  Z M 15.6346153846154 2.7890625  C 15.8782051282051 3.02938988095238  16 3.31398809523809  16 3.64285714285714  L 16 15.7857142857143  C 16 16.1145833333333  15.8782051282051 16.399181547619  15.6346153846154 16.6395089285714  C 15.3910256410256 16.8798363095238  15.1025641025641 17  14.7692307692308 17  L 1.23076923076923 17  C 0.897435897435898 17  0.608974358974359 16.8798363095238  0.365384615384615 16.6395089285714  C 0.121794871794872 16.399181547619  0 16.1145833333333  0 15.7857142857143  L 0 3.64285714285714  C 0 3.31398809523809  0.121794871794872 3.02938988095238  0.365384615384615 2.7890625  C 0.608974358974359 2.54873511904762  0.897435897435898 2.42857142857143  1.23076923076923 2.42857142857143  L 2.46153846153846 2.42857142857143  L 2.46153846153846 1.51785714285714  C 2.46153846153846 1.10044642857143  2.61217948717949 0.743117559523809  2.91346153846154 0.445870535714286  C 3.21474358974359 0.148623511904762  3.57692307692308 0  4 0  L 4.61538461538462 0  C 5.03846153846154 0  5.40064102564103 0.148623511904762  5.70192307692308 0.445870535714286  C 6.00320512820513 0.743117559523809  6.15384615384615 1.10044642857143  6.15384615384615 1.51785714285714  L 6.15384615384615 2.42857142857143  L 9.84615384615385 2.42857142857143  L 9.84615384615385 1.51785714285714  C 9.84615384615385 1.10044642857143  9.99679487179487 0.743117559523809  10.2980769230769 0.445870535714286  C 10.599358974359 0.148623511904762  10.9615384615385 0  11.3846153846154 0  L 12 0  C 12.4230769230769 0  12.7852564102564 0.148623511904762  13.0865384615385 0.445870535714286  C 13.3878205128205 0.743117559523809  13.5384615384615 1.10044642857143  13.5384615384615 1.51785714285714  L 13.5384615384615 2.42857142857143  L 14.7692307692308 2.42857142857143  C 15.1025641025641 2.42857142857143  15.3910256410256 2.54873511904762  15.6346153846154 2.7890625  Z " fill-rule="nonzero" fill="#f2f2f2" stroke="none" transform="matrix(1 0 0 1 150 202 )" />
  </g>
</svg>