<?xml version="1.0" encoding="utf-8"?>
<svg version="1.1" xmlns:xlink="http://www.w3.org/1999/xlink" width="25px" height="19px" xmlns="http://www.w3.org/2000/svg">
  <g transform="matrix(1 0 0 1 -375 -201 )">
    <path d="M 4.6875 9.5  L 7.8125 9.5  L 7.8125 15.8333333333333  L 4.6875 15.8333333333333  L 4.6875 9.5  Z M 9.375 3.16666666666667  L 12.5 3.16666666666667  L 12.5 15.8333333333333  L 9.375 15.8333333333333  L 9.375 3.16666666666667  Z M 2 17.4166666666667  L 25 17.4166666666667  L 25 19  L 0 19  L 0 0  L 2 0  L 2 17.4166666666667  Z M 14.0625 6.33333333333333  L 17.1875 6.33333333333333  L 17.1875 15.8333333333333  L 14.0625 15.8333333333333  L 14.0625 6.33333333333333  Z M 18.75 1.58333333333333  L 21.875 1.58333333333333  L 21.875 15.8333333333333  L 18.75 15.8333333333333  L 18.75 1.58333333333333  Z " fill-rule="nonzero" fill="#f2f2f2" stroke="none" transform="matrix(1 0 0 1 375 201 )" />
  </g>
</svg>