<?xml version="1.0" encoding="utf-8"?>
<svg version="1.1" xmlns:xlink="http://www.w3.org/1999/xlink" width="25px" height="25px" xmlns="http://www.w3.org/2000/svg">
  <g transform="matrix(1 0 0 1 -530 -1051 )">
    <path d="M 6.2255859375 1.71781187458306  C 8.14073350694444 0.572603958194351  10.2322048611111 0  12.5 0  C 14.7677951388889 0  16.8592664930556 0.572603958194351  18.7744140625 1.71781187458306  C 20.6895616319444 2.86301979097176  22.2059461805556 4.41683344451857  23.3235677083333 6.37925283522348  C 24.4411892361111 8.3416722259284  25 10.4847676228597  25 12.8085390260173  C 25 15.5992884144986  24.2051866319444 18.1092950856126  22.6155598958333 20.3385590393596  C 21.0259331597222 22.5678229931065  18.9724392361111 24.1105181231932  16.455078125 24.9666444296197  C 16.162109375 25.0222370469202  15.9450954861111 24.9833222148099  15.8040364583333 24.8498999332889  C 15.6629774305556 24.7164776517678  15.5924479166667 24.5496997998666  15.5924479166667 24.3495663775851  C 15.5924479166667 24.3162108072048  15.5951605902778 23.8909272848566  15.6005859375 23.0737158105404  C 15.6060112847222 22.2565043362242  15.6087239583333 21.5087836335335  15.6087239583333 20.8305537024683  C 15.6087239583333 19.7520569268401  15.3266059027778 18.9626417611741  14.7623697916667 18.4623082054703  C 15.380859375 18.3955970647098  15.9369574652778 18.295530353569  16.4306640625 18.162108072048  C 16.9243706597222 18.028685790527  17.4343532986111 17.8118745830554  17.9606119791667 17.5116744496331  C 18.4868706597222 17.2114743162108  18.9263237847222 16.841783411163  19.2789713541667 16.4026017344897  C 19.6316189236111 15.9634200578163  19.9191623263889 15.3796975761619  20.1416015625 14.6514342895263  C 20.3640407986111 13.9231710028908  20.4752604166667 13.0865021125195  20.4752604166667 12.1414276184123  C 20.4752604166667 10.8183233266622  20.0466579861111 9.67311541027352  19.189453125 8.70580386924616  C 19.5909288194444 7.69401823437847  19.5475260416667 6.55992884144985  19.0592447916667 5.30353569046031  C 18.7554253472222 5.20346897931955  18.3159722222222 5.26462085835001  17.7408854166667 5.4869913275517  C 17.1657986111111 5.70936179675339  16.6666666666667 5.95396931287525  16.2434895833333 6.22081387591728  L 15.625 6.62108072048032  C 14.6158854166667 6.33199911051812  13.57421875 6.18745830553702  12.5 6.18745830553702  C 11.42578125 6.18745830553702  10.3841145833333 6.33199911051812  9.375 6.62108072048032  C 9.20138888888889 6.49877696241939  8.97081163194445 6.34867689570825  8.68326822916667 6.1707805203469  C 8.39572482638889 5.99288414498554  7.94270833333333 5.77885256837892  7.32421875 5.52868579052702  C 6.70572916666667 5.27851901267512  6.24457465277778 5.20346897931955  5.94075520833333 5.30353569046031  C 5.45247395833333 6.55992884144985  5.40907118055556 7.69401823437847  5.810546875 8.70580386924616  C 4.95334201388889 9.67311541027352  4.52473958333333 10.8183233266622  4.52473958333333 12.1414276184123  C 4.52473958333333 13.0865021125195  4.63595920138889 13.9203913720258  4.8583984375 14.6430953969313  C 5.08083767361111 15.3657994218368  5.36566840277778 15.9495219034912  5.712890625 16.3942628418946  C 6.06011284722222 16.839003780298  6.49685329861111 17.2114743162108  7.02311197916667 17.5116744496331  C 7.54937065972222 17.8118745830554  8.05935329861111 18.028685790527  8.55305989583333 18.162108072048  C 9.04676649305556 18.295530353569  9.60286458333333 18.3955970647098  10.2213541666667 18.4623082054703  C 9.79817708333333 18.8625750500334  9.53233506944445 19.4351790082277  9.423828125 20.1801200800534  C 9.19596354166667 20.2913053146542  8.95182291666667 20.3746942406049  8.69140625 20.4302868579053  C 8.43098958333333 20.4858794752057  8.12174479166667 20.5136757838559  7.763671875 20.5136757838559  C 7.40559895833333 20.5136757838559  7.05023871527778 20.39415165666  6.69759114583333 20.1551034022682  C 6.34494357638889 19.9160551478764  6.04383680555556 19.5686012897487  5.79427083333333 19.1127418278853  C 5.58810763888889 18.7569490771625  5.32497829861111 18.4678674672004  5.0048828125 18.2454969979987  C 4.68478732638889 18.023126528797  4.41623263888889 17.889704247276  4.19921875 17.8452301534356  L 3.87369791666667 17.7951967978652  C 3.64583333333333 17.7951967978652  3.48849826388889 17.8202134756504  3.40169270833333 17.8702468312208  C 3.31488715277778 17.9202801867912  3.28776041666667 17.9842116966867  3.3203125 18.0620413609073  C 3.35286458333333 18.1398710251279  3.40169270833333 18.2177006893485  3.466796875 18.295530353569  C 3.53190104166667 18.3733600177896  3.60243055555556 18.4400711585501  3.67838541666667 18.4956637758506  L 3.79231770833333 18.5790527018012  C 4.03103298611111 18.690237936402  4.26703559027778 18.9014898821437  4.50032552083333 19.212808539026  C 4.73361545138889 19.5241271959084  4.90451388888889 19.8076495441405  5.01302083333333 20.0633755837225  L 5.17578125 20.4469646430954  C 5.31684027777778 20.8694685345786  5.55555555555556 21.2113631309762  5.89192708333333 21.4726484322882  C 6.22829861111111 21.7339337336002  6.591796875 21.9007115855014  6.982421875 21.972981987992  C 7.373046875 22.0452523904825  7.75010850694445 22.0841672225928  8.11360677083333 22.0897264843229  C 8.47710503472222 22.0952857460529  8.77821180555556 22.0758283299978  9.01692708333333 22.0313542361574  L 9.39127604166667 21.9646430953969  C 9.39127604166667 22.3871469868801  9.39398871527778 22.8791416499889  9.3994140625 23.4406270847231  C 9.40483940972222 24.0021125194574  9.40755208333333 24.3050922837447  9.40755208333333 24.3495663775851  C 9.40755208333333 24.5496997998666  9.33702256944445 24.7164776517678  9.19596354166667 24.8498999332889  C 9.05490451388889 24.9833222148099  8.837890625 25.0222370469202  8.544921875 24.9666444296197  C 6.02756076388889 24.1105181231932  3.97406684027778 22.5678229931065  2.38444010416667 20.3385590393596  C 0.794813368055555 18.1092950856126  0 15.5992884144986  0 12.8085390260173  C 0 10.4847676228597  0.558810763888889 8.3416722259284  1.67643229166667 6.37925283522348  C 2.79405381944444 4.41683344451857  4.31043836805556 2.86301979097176  6.2255859375 1.71781187458306  Z M 4.52473958333333 18.4289526350901  C 4.62239583333333 18.4956637758506  4.69292534722222 18.4845452523905  4.736328125 18.3955970647098  C 4.76888020833333 18.3177674004892  4.73090277777778 18.2510562597287  4.62239583333333 18.1954636424283  C 4.51388888888889 18.162108072048  4.443359375 18.1732265955081  4.41080729166667 18.2288192128085  C 4.37825520833333 18.3066488770291  4.41623263888889 18.3733600177896  4.52473958333333 18.4289526350901  Z M 4.98046875 18.9126084056037  C 5.08897569444444 19.0237936402046  5.17578125 19.0404714253947  5.24088541666667 18.9626417611741  C 5.31684027777778 18.9070491438737  5.30598958333333 18.818100956193  5.20833333333333 18.6957971981321  C 5.09982638888889 18.5957304869913  5.01302083333333 18.5790527018012  4.94791666666667 18.6457638425617  C 4.87196180555556 18.7013564598621  4.8828125 18.7903046475428  4.98046875 18.9126084056037  Z M 5.45247395833333 19.5963975983989  C 5.55013020833333 19.74093840338  5.64236111111111 19.7798532354903  5.72916666666667 19.7131420947298  C 5.82682291666667 19.6353124305092  5.82682291666667 19.5296864576384  5.72916666666667 19.3962641761174  C 5.64236111111111 19.2517233711363  5.55013020833333 19.2183678007561  5.45247395833333 19.2961974649767  C 5.35481770833333 19.3517900822771  5.35481770833333 19.4518567934178  5.45247395833333 19.5963975983989  Z M 6.08723958333333 20.3635757171448  C 6.21744791666667 20.4969979986658  6.32595486111111 20.5136757838559  6.41276041666667 20.4136090727151  C 6.49956597222222 20.3246608850345  6.47786458333333 20.2190349121637  6.34765625 20.0967311541027  C 6.21744791666667 19.9633088725817  6.10894097222222 19.9466310873916  6.02213541666667 20.0466977985324  C 5.92447916666667 20.135645986213  5.94618055555556 20.2412719590838  6.08723958333333 20.3635757171448  Z M 7.03125 20.9306204136091  C 7.19401041666667 20.9973315543696  7.29709201388889 20.9639759839893  7.34049479166667 20.8305537024683  C 7.373046875 20.7082499444074  7.30251736111111 20.6193017567267  7.12890625 20.5637091394263  C 6.96614583333333 20.5192350455859  6.86306423611111 20.5581498776962  6.81966145833333 20.6804536357572  C 6.77625868055556 20.8027573938181  6.84678819444444 20.8861463197687  7.03125 20.9306204136091  Z M 8.10546875 21.0973982655103  C 8.27907986111111 21.0973982655103  8.36588541666667 21.0362463864799  8.36588541666667 20.9139426284189  C 8.36588541666667 20.7694018234378  8.27365451388889 20.7082499444074  8.08919270833333 20.7304869913276  C 7.91558159722222 20.7304869913276  7.82877604166667 20.791638870358  7.82877604166667 20.9139426284189  C 7.82877604166667 21.0584834334  7.92100694444444 21.1196353124305  8.10546875 21.0973982655103  Z M 9.08203125 20.9806537691795  C 9.25564236111111 20.9361796753391  9.33159722222222 20.8583500111185  9.30989583333333 20.7471647765177  C 9.28819444444445 20.6248610184567  9.19053819444445 20.5748276628864  9.01692708333333 20.5970647098065  C 8.84331597222222 20.6304202801868  8.76736111111111 20.7138092061374  8.7890625 20.8472314876584  C 8.81076388888889 20.9806537691795  8.90842013888889 21.0251278630198  9.08203125 20.9806537691795  Z " fill-rule="nonzero" fill="#ffffff" stroke="none" transform="matrix(1 0 0 1 530 1051 )" />
  </g>
</svg>