<?xml version="1.0" encoding="utf-8"?>
<svg version="1.1" xmlns:xlink="http://www.w3.org/1999/xlink" width="150px" height="100px" xmlns="http://www.w3.org/2000/svg">
  <g transform="matrix(1 0 0 1 150 -201 )">
    <path d="M -150 201  L 0 201  L 0 301  L -150 301  L -150 201  " fill-rule="nonzero" fill="#cccccc" stroke="none" />
    <path d="M -143 208  L -7 208  L -7 294  L -143 294  L -143 208  " fill-rule="nonzero" fill="#ffffff" stroke="none" />
    <path d="M -64.5 231  C -68.7 231  -72 227.7  -72 223.5  C -72 219.3  -68.7 216  -64.5 216  C -60.3 216  -57 219.3  -57 223.5  C -57 227.7  -60.3 231  -64.5 231  " fill-rule="nonzero" fill="#cccccc" stroke="none" />
    <path d="M -141 292  L -141 247.45  L -108.25 227.2  L -62.4 259.6  L -36.2 239.35  L -10 259.6  L -10 292  L -141 292  " fill-rule="nonzero" fill="#169bd5" stroke="none" />
  </g>
</svg>