<?xml version="1.0" encoding="utf-8"?>
<svg version="1.1" xmlns:xlink="http://www.w3.org/1999/xlink" width="265px" height="150px" xmlns="http://www.w3.org/2000/svg">
  <g transform="matrix(1 0 0 1 -88 -151 )">
    <path d="M 88 151  L 353 151  L 353 301  L 88 301  L 88 151  " fill-rule="nonzero" fill="#cccccc" stroke="none" />
    <path d="M 99 162  L 342 162  L 342 290  L 99 290  L 99 162  " fill-rule="nonzero" fill="#ffffff" stroke="none" />
    <path d="M 237.05 196  C 230.75 196  225.8 191.05  225.8 184.75  C 225.8 178.45  230.75 173.5  237.05 173.5  C 243.35 173.5  248.3 178.45  248.3 184.75  C 248.3 191.05  243.35 196  237.05 196  " fill-rule="nonzero" fill="#cccccc" stroke="none" />
    <path d="M 103 286  L 103 220  L 161.75 190  L 244 245.245283018868  L 291 208  L 338 245.245283018868  L 338 286  L 103 286  " fill-rule="nonzero" fill="#169bd5" stroke="none" />
  </g>
</svg>