<?xml version="1.0" encoding="utf-8"?>
<svg version="1.1" xmlns:xlink="http://www.w3.org/1999/xlink" width="10px" height="10px" xmlns="http://www.w3.org/2000/svg">
  <g transform="matrix(1 0 0 1 -605 -204 )">
    <path d="M 5.47689655172414 3.7  L 4.98965517241379 4.1812925170068  L 2.18379310344828 1.41360544217687  C 2.1039787693271 1.33235754412273  1.99364555996149 1.28729810941783  1.87896551724138 1.2891156462585  C 1.76 1.2891156462585  1.65827586206897 1.33061224489796  1.57413793103448 1.41360544217687  C 1.49176937231753 1.49233386699028  1.44608842816842 1.60116594425568  1.44793103448276 1.71428571428571  C 1.44793103448276 1.83163265306122  1.49 1.93197278911565  1.57413793103448 2.01496598639456  L 2.1448275862069 2.57755102040816  C 2.15862068965517 2.59013605442177  2.17206896551724 2.60272108843537  2.1851724137931 2.61598639455782  L 4.37965517241379 4.78027210884354  L 4.37862068965517 4.7812925170068  L 4.38 4.78231292517007  L 3.89206896551724 5.26326530612245  L 1.67413793103448 3.07551020408164  C 1.61283902847891 3.02376665714623  1.53446202705166 2.99593966346352  1.45379310344828 2.99727891156463  C 1.36206104098006 2.99585337707214  1.27381842833496 3.03192595929873  1.21 3.09693877551021  C 1.14409045528905 3.15988892590864  1.10752032020416 3.24693095878986  1.10896551724138 3.3374149659864  C 1.10896551724138 3.43129251700681  1.14275862068966 3.51156462585034  1.21 3.57789115646259  L 3.40448275862069 5.74251700680272  L 2.91689655172414 6.22346938775511  L 1.07 4.40170068027211  C 1.01206896551724 4.4187074829932  0.954137931034484 4.45544217687075  0.896551724137933 4.51224489795919  C 0.800000000000002 4.60748299319728  0.754137931034484 4.71360544217687  0.758965517241381 4.83095238095238  C 0.764482758620691 4.96054421768708  0.828620689655173 5.08605442176871  0.951724137931036 5.20748299319728  L 3.9096551724138 8.12517006802721  C 4.64793103448276 8.85374149659864  5.39103448275862 9.2374149659864  6.13931034482759 9.2765306122449  C 6.86275862068966 9.31462585034014  7.53862068965517 9.02380952380953  8.16655172413793 8.40442176870749  L 8.17137931034483 8.39931972789116  L 8.31275862068965 8.27108843537415  C 9.38344827586207 7.21666666666667  9.55310344827586 5.93197278911565  8.82241379310345 4.41734693877551  L 7.67344827586207 2.03979591836735  C 7.62887749073927 1.94313359977184  7.56696290678795 1.85521266541868  7.49068965517241 1.78027210884354  C 7.38896551724138 1.67993197278912  7.27551724137931 1.63027210884354  7.15034482758621 1.63129251700681  C 7.02448275862069 1.63231292517007  6.91068965517241 1.68333333333334  6.80862068965517 1.78367346938776  C 6.66655172413793 1.92448979591837  6.64551724137931 2.11598639455783  6.74586206896552 2.35850340136055  L 7.1851724137931 3.37891156462585  L 7.18655172413793 3.38299319727891  C 7.21068965517241 3.44353741496599  7.22103448275862 3.50374149659864  7.21655172413793 3.5639455782313  C 7.20965517241379 3.66258503401361  7.17172413793103 3.74285714285715  7.10275862068966 3.80578231292517  C 7.02 3.89149659863946  6.91586206896552 3.9265306122449  6.79068965517241 3.91122448979592  C 6.70204910283886 3.90070581090282  6.61975888597199 3.86048072451724  6.55758620689655 3.79727891156463  L 5.96724137931035 3.21462585034014  L 5.96448275862069 3.21734693877551  L 3.52655172413793 0.812244897959186  C 3.46262713754706 0.747179506604045  3.37425714350966 0.711105875827701  3.28241379310345 0.712585034013608  C 3.19068173063523 0.711159499521117  3.10243911799013 0.747232081747705  3.03862068965517 0.812244897959186  C 2.97271114494422 0.875195048357615  2.93614100985934 0.962237081238836  2.93758620689655 1.05272108843538  C 2.93758620689655 1.14659863945578  2.97137931034483 1.2265306122449  3.03862068965517 1.29319727891157  L 5.47689655172414 3.69795918367347  L 5.47620689655172 3.69931972789116  L 5.47689655172414 3.7  Z M 0.418965517241379 3.33741496598639  C 0.418965517241379 3.05544217687075  0.52 2.81496598639456  0.722068965517241 2.61598639455782  C 0.809655172413793 2.52925170068027  0.905517241379311 2.46156462585034  1.00896551724138 2.4125850340136  C 0.842068965517241 2.21394557823129  0.758620689655172 1.9812925170068  0.758620689655172 1.71428571428571  C 0.758620689655172 1.40918367346939  0.868275862068966 1.14863945578231  1.08689655172414 0.93265306122449  C 1.29437141801897 0.721413883736064  1.58117406794838 0.604215735105617  1.87931034482759 0.608843537414967  C 2.0351724137931 0.608843537414967  2.17931034482759 0.636054421768708  2.31206896551724 0.690816326530613  C 2.36241379310345 0.558843537414967  2.44206896551724 0.439115646258504  2.55137931034483 0.330952380952381  C 2.74291728202991 0.136073337184952  3.00762173861889 0.0279882522765241  3.28275862068965 0.0323129251700681  C 3.55801467117629 0.0278938390420126  3.8228622862026 0.135986415898015  4.01448275862069 0.330952380952382  L 4.0748275862069 0.390816326530613  L 4.07827586206896 0.387755102040817  L 6.0148275862069 2.29897959183674  C 5.9917769363311 2.16819146979207  5.99061207369595 2.034561122527  6.01137931034483 1.90340136054422  C 6.04931034482759 1.66972789115646  6.15275862068965 1.46972789115646  6.32137931034483 1.30272108843537  C 6.55620689655172 1.07108843537415  6.83068965517241 0.953741496598639  7.14448275862069 0.951020408163265  C 7.46275862068965 0.948299319727891  7.74 1.06360544217687  7.97620689655172 1.29727891156463  C 8.11137931034483 1.42925170068027  8.21827586206896 1.57959183673469  8.29655172413793 1.74727891156463  L 9.44551724137931 4.12482993197279  C 9.8696551724138 5.00442176870748  10.0286206896552 5.83571428571429  9.92241379310345 6.61802721088435  C 9.81413793103448 7.41258503401361  9.43862068965517 8.12585034013605  8.7951724137931 8.75748299319728  L 8.79034482758621 8.76224489795918  L 8.64931034482759 8.89047619047619  C 7.87793103448276 9.64897959183673  7.02931034482759 10.0044217687075  6.10310344827586 9.95578231292517  C 5.17896551724138 9.90748299319728  4.2851724137931 9.4578231292517  3.42241379310345 8.60646258503401  L 0.464482758620691 5.68843537414966  C 0.213793103448276 5.4421768707483  0.0827586206896551 5.1656462585034  0.0699999999999998 4.85884353741497  C 0.0565517241379308 4.54319727891157  0.17 4.26700680272109  0.41 4.03027210884354  C 0.465172413793103 3.97585034013606  0.522068965517241 3.92857142857143  0.580689655172414 3.88809523809524  C 0.472484125928986 3.72436459395018  0.416291960696937 3.5324996655676  0.419310344827586 3.33707482993197  Z " fill-rule="nonzero" fill="#ffffff" stroke="none" transform="matrix(1 0 0 1 605 204 )" />
  </g>
</svg>