<?xml version="1.0" encoding="utf-8"?>
<svg version="1.1" xmlns:xlink="http://www.w3.org/1999/xlink" width="10px" height="10px" xmlns="http://www.w3.org/2000/svg">
  <g transform="matrix(1 0 0 1 -780 -384 )">
    <path d="M 9.83608445967066 5.39835  C 9.83608445967066 2.98079261063752  7.90279037537844 1.00709554631736  5.48575 0.957100000000001  C 5.45513224648421 0.956466683597997  5.42450876243853 0.956150000000001  5.39388445967066 0.956150000000001  C 2.94052514397231 0.956150000000001  0.951684459670656 2.94499068430165  0.951684459670656 5.39835  C 0.951684459670656 7.85170931569835  2.94052514397231 9.84055  5.39388445967066 9.84055  C 5.42450876243853 9.84055  5.45513224648421 9.840233316402  5.48575 9.8396  C 7.90279037537844 9.78960445368264  9.83608445967066 7.81590738936248  9.83608445967066 5.39835  Z M 5.48575 7.62895  C 5.48511639661703 7.62895054038698  5.48448279303292 7.6289508105805  5.4838491894195 7.6289508105805  C 4.25297216747161 7.6289508105805  3.2551491894195 6.63112783252839  3.2551491894195 5.4002508105805  C 3.2551491894195 5.39961720696786  3.25514945961303 5.3989836033822  3.25515 5.39835  C 3.25514979718226 4.16652216798988  4.25297277523437 3.16869918993777  5.48384979718226 3.16869918993777  C 5.48448319820785 3.16869918993777  5.48511659920463 3.16869945995853  5.48575 3.1687  C 6.71757722450655 3.16869979744135  7.71540020255866 4.16652277549346  7.71540020255866 5.39739979744135  C 7.71540054004147 5.39898340079615  7.71540081006223 5.39961680179138  7.71540081006223 5.40025020281774  C 7.71540081006223 6.63112722476563  6.71757783201012 7.62895020281774  5.48670081006224 7.62895020281774  Z " fill-rule="nonzero" fill="#ffffff" stroke="none" transform="matrix(1 0 0 1 780 384 )" />
  </g>
</svg>