<?xml version="1.0" encoding="utf-8"?>
<svg version="1.1" xmlns:xlink="http://www.w3.org/1999/xlink" width="4px" height="3px" xmlns="http://www.w3.org/2000/svg">
  <g transform="matrix(1 0 0 1 -788 -388 )">
    <path d="M 1.4197 1.12665  L 1.927 1.12665  L 1.927 1.63395  L 1.4197 1.63395  L 1.4197 2.1422  L 0.9124 2.1422  L 0.9124 1.63395  L 0.404149999999998 1.63395  L 0.404149999999998 1.12665  L 0.9124 1.12665  L 0.9124 0.619350000000001  L 1.4197 0.619350000000001  L 1.4197 1.12665  Z M 3.2874 1.1447  L 3.7947 1.1447  L 3.7947 1.652  L 3.2874 1.652  L 3.2874 2.16025  L 2.77915 2.16025  L 2.77915 1.652  L 2.27185 1.652  L 2.27185 1.1447  L 2.77915 1.1447  L 2.77915 0.6374  L 3.2874 0.6374  L 3.2874 1.1447  Z " fill-rule="nonzero" fill="#ffffff" stroke="none" transform="matrix(1 0 0 1 788 388 )" />
  </g>
</svg>