<?xml version="1.0" encoding="utf-8"?>
<svg version="1.1" xmlns:xlink="http://www.w3.org/1999/xlink" width="12px" height="12px" xmlns="http://www.w3.org/2000/svg">
  <g transform="matrix(1 0 0 1 -854 -453 )">
    <path d="M 2.96996590909091 2.28126136363636  L 2.96752840909091 2.28369886363636  C 2.83257954545455 2.28369886363636  2.74128409090909 2.30009659090909  2.64622159090909 2.32225568181818  L 2.64622159090909 2.33776704545455  L 2.66261931818182 2.33776704545455  C 2.72599431818182 2.45942045454545  2.83390909090909 2.54827840909091  2.91368181818182 2.65730113636364  C 2.97683522727273 2.7825  3.03090340909091 2.90769886363636  3.09405681818182 3.03178977272727  L 3.11045454545455 3.01450568181818  C 3.22080681818182 2.93694886363636  3.27465340909091 2.81285795454545  3.27465340909091 2.62450568181818  C 3.22767613636364 2.56955113636364  3.22080681818182 2.514375  3.18092045454546 2.46052840909091  C 3.13394318181818 2.38208522727273  3.03311931818182 2.34330681818182  2.96996590909091 2.28126136363636  Z M 10.9625284090909 9.08742613636364  C 10.3349829545455 9.07102840909091  9.84859090909091 9.13418181818182  9.44175 9.30746590909091  C 9.32430681818182 9.35444318181818  9.13684090909091 9.35444318181818  9.12044318181818 9.50313068181818  C 9.18492613636364 9.56517613636364  9.19423295454545 9.66710795454546  9.24940909090909 9.75352840909091  C 9.34314204545455 9.91063636363637  9.505125 10.1202613636364  9.65492045454545 10.2301704545455  C 9.81934090909091 10.3591363636364  9.98331818181818 10.4832272727273  10.1557159090909 10.5933579545455  C 10.460625 10.7806022727273  10.8065284090909 10.8918409090909  11.1054545454545 11.0804147727273  C 11.2754147727273 11.1905454545455  11.4489204545455 11.3299261363636  11.6213181818182 11.4469261363636  C 11.7068522727273 11.5054261363636  11.7620284090909 11.6109034090909  11.8721590909091 11.6485738636364  L 11.8721590909091 11.6250852272727  C 11.8183125 11.5546193181818  11.8016931818182 11.4529090909091  11.7489545454545 11.3744659090909  C 11.6705113636364 11.2960227272727  11.5918465909091 11.2255568181818  11.5145113636364 11.1484431818182  C 11.284312192409 10.8453411715256  11.0096114797801 10.5787836130105  10.6997215909091 10.3578068181818  C 10.4488806818182 10.1869602272727  9.9 9.94786363636364  9.79696022727273 9.661125  L 9.78167045454545 9.64472727272727  C 9.95296022727273 9.6294375  10.1568238636364 9.56739204545455  10.3210227272727 9.52063636363636  C 10.5871534090909 9.45039204545455  10.831125 9.46568181818182  11.1065625 9.39654545454545  C 11.2306534090909 9.36485795454545  11.3562954545455 9.32630113636363  11.4817159090909 9.28641477272727  L 11.4817159090909 9.21617045454545  C 11.3410056818182 9.07568181818182  11.2355284090909 8.88467045454545  11.0901647727273 8.75371022727273  C 10.6843557097164 8.3993511484431  10.2516146907777 8.07707355344513  9.79585227272727 7.78978977272727  C 9.54966477272727 7.63290340909091  9.23766477272727 7.53230113636363  8.978625 7.39868181818182  C 8.88489204545454 7.35192613636363  8.72778409090909 7.3284375  8.67371590909091 7.25021590909091  C 8.53300568181818 7.07914772727272  8.45101704545454 6.85179545454545  8.35130113636363 6.64815340909091  C 8.12109989091761 6.20211204150485  7.90719715089757 5.74784589079192  7.71001704545454 5.28625568181818  C 7.56930681818182 4.97935227272727  7.48377272727273 4.67377840909091  7.311375 4.39280113636363  C 6.50256818181818 3.06126136363636  5.62661931818182 2.25444886363636  4.27934659090909 1.46514204545454  C 3.98994886363636 1.30116477272727  3.6429375 1.23092045454545  3.27576136363636 1.14427840909091  C 3.08009659090909 1.13497159090909  2.88421022727273 1.12078977272727  2.68965340909091 1.11259090909091  C 2.5606875 1.05763636363636  2.436375 0.90872727272727  2.32624431818182 0.837596590909088  C 1.88084659090909 0.556397727272725  0.727022727272726 -0.0525340909090935  0.398624999999998 0.753170454545452  C 0.187670454545453 1.2615  0.711732954545453 1.76251704545454  0.893437499999998 2.02022727272727  C 1.02838636363636 2.19949431818182  1.19834659090909 2.40424431818182  1.29230113636363 2.60567045454545  C 1.34725568181818 2.74150568181818  1.36232386363636 2.88088636363636  1.4175 3.02270454545454  C 1.5418125 3.36683522727272  1.66014204545454 3.75107386363636  1.82434090909091 4.07304545454545  C 1.909875 4.23702272727272  2.00382954545454 4.40919886363636  2.11396022727273 4.55677840909091  C 2.17733522727273 4.64209090909091  2.28525 4.68197727272727  2.30984659090909 4.8226875  C 2.19949431818182 4.98178977272727  2.19240340909091 5.21357386363636  2.12925 5.40790909090909  C 1.84782954545454 6.29427272727273  1.95796022727273 7.39048295454545  2.35660227272727 8.042625  C 2.48202272727273 8.23718181818182  2.78117045454545 8.66817613636363  3.18092045454545 8.50309090909091  C 3.53258522727273 8.36238068181818  3.45525 7.91742613636364  3.55607386363636 7.52521022727273  C 3.5795625 7.43147727272727  3.56427272727273 7.36943181818182  3.61235795454545 7.30627840909091  L 3.61235795454545 7.32378409090909  C 3.72248863636364 7.54404545454545  3.83284090909091 7.75367045454545  3.93366477272727 7.97371022727273  C 4.17519886363636 8.35772727272727  4.59710795454545 8.75592613636364  4.95010227272727 9.02183522727273  C 5.13756818181818 9.16232386363636  5.28647727272727 9.40585227272727  5.52114204545455 9.49249431818182  L 5.52114204545455 9.46922727272727  L 5.50341477272727 9.46922727272727  C 5.45311363636364 9.40119886363637  5.38619318181818 9.36840340909091  5.32303977272727 9.31344886363636  C 5.17438017059235 9.16810705014079  5.03717614059441 9.01149294678461  4.91265340909091 8.84500568181818  C 4.58229079413631 8.3942085178236  4.28933224038811 7.91715964090047  4.03670454545454 7.418625  C 3.90773863636364 7.17265909090909  3.79982386363636 6.90807954545455  3.69678409090909 6.66565909090909  C 3.64980681818182 6.57192613636364  3.64980681818182 6.4314375  3.57136363636364 6.38468181818182  C 3.45392045454545 6.55552840909091  3.28174431818182 6.7044375  3.19621022727273 6.91517045454546  C 3.04730113636364 7.25243181818182  3.03201136363636 7.66680681818182  2.97572727272727 8.09780113636364  C 2.94403977272727 8.106  2.95932954545455 8.09780113636364  2.94403977272727 8.11419886363636  C 2.69319886363636 8.05326136363636  2.60766477272727 7.79333522727273  2.51371022727273 7.57573295454545  C 2.27926704545455 7.01931818181818  2.24071022727273 6.12586363636364  2.44346590909091 5.48524431818182  C 2.49842045454545 5.32126704545455  2.73308522727273 4.80385227272727  2.63913068181818 4.64674431818182  C 2.5899375 4.49827840909091  2.43526704545455 4.41274431818182  2.34973295454545 4.29219886363636  C 2.23962490339077 4.13520085301468  2.14535684954891 3.96767093370674  2.0683125 3.79206818181818  C 1.880625 3.35398295454545  1.78689204545455 2.86914204545455  1.58302840909091 2.43127840909091  C 1.48907386363636 2.22874431818182  1.324875 2.01690340909091  1.19125568181818 1.83054545454545  C 1.04234659090909 1.6198125  0.878147727272727 1.471125  0.759818181818181 1.22161363636364  C 0.721039772727272 1.13607954545455  0.666085227272727 0.994482954545454  0.728130681818181 0.900749999999999  C 0.744528409090908 0.83759659090909  0.777323863636363 0.812999999999999  0.838261363636363 0.795272727272727  C 0.941522727272726 0.711068181818181  1.23114204545454 0.821198863636363  1.33307386363636 0.867954545454545  C 1.62269318181818 0.984954545454545  1.86666477272727 1.09508522727273  2.10930681818182 1.2590625  C 2.2194375 1.33639772727273  2.33798863636364 1.48508522727273  2.47869886363636 1.52364204545454  L 2.64267613636364 1.52364204545454  C 2.89373863636364 1.57881818181818  3.17626704545455 1.54003977272727  3.41071022727273 1.60917613636364  C 3.82685795454545 1.74257386363636  4.20201136363636 1.93713068181818  4.53860795454545 2.14786363636364  C 5.57517866804916 2.80905496412431  6.41853341350359 3.73252535254795  6.98319886363636 4.82468181818182  C 7.07693181818182 5.00505681818182  7.11792613636363 5.17036363636364  7.20346022727273 5.35760795454545  C 7.36765909090909 5.7440625  7.57041477272727 6.1340625  7.73705113636363 6.50766477272727  C 7.90102840909091 6.87639204545455  8.05946590909091 7.25221022727273  8.29501704545454 7.55800568181818  C 8.41246022727273 7.72198295454545  8.8835625 7.80751704545454  9.09473863636364 7.89282954545455  C 9.25051704545455 7.96307386363636  9.49338068181818 8.02755681818182  9.63409090909091 8.11309090909091  C 9.90354545454545 8.27706818181818  10.1663522727273 8.4643125  10.4194090909091 8.64490909090909  C 10.548375 8.73354545454545  10.9388181818182 8.92921022727273  10.9623068181818 9.08742613636364  Z " fill-rule="nonzero" fill="#ffffff" stroke="none" transform="matrix(1 0 0 1 854 453 )" />
  </g>
</svg>