<?xml version="1.0" encoding="utf-8"?>
<svg version="1.1" xmlns:xlink="http://www.w3.org/1999/xlink" width="4px" height="6px" xmlns="http://www.w3.org/2000/svg">
  <g transform="matrix(1 0 0 1 -855 -383 )">
    <path d="M 3.5355 0.87825  C 3.6645 0.64275  3.771 0.27825  3.6 0  C 3.79275 0.19275  3.94275 0.55725  3.94275 0.92175  C 3.94275 2.05725  2.74275 2.7  2.1645 3.45  C 2.0355 3.62175  1.8645 3.87825  1.8645 4.15725  C 1.8645 4.77825  2.50725 5.4645  2.74275 5.95725  C 2.35725 5.7  1.8645 5.3355  1.5 4.9275  C 1.15725 4.5  0.79275 3.8355  1.1145 3.2355  C 1.5855 2.35725  3.021 1.82175  3.5355 0.87825  Z " fill-rule="nonzero" fill="#ff1515" stroke="none" transform="matrix(1 0 0 1 855 383 )" />
  </g>
</svg>