<?xml version="1.0" encoding="utf-8"?>
<svg version="1.1" xmlns:xlink="http://www.w3.org/1999/xlink" width="7px" height="5px" xmlns="http://www.w3.org/2000/svg">
  <g transform="matrix(1 0 0 1 -854 -388 )">
    <path d="M 1.42825 1.2355  C 1.57825 1.0255  1.876 0.9415  2.14375 0.86575  C 2.25775 0.8335  2.36725 0.80275  2.45725 0.7645  C 2.34673846705745 0.755144163541825  2.23552063411365 0.758415276275466  2.12575 0.77425  C 2.071 0.78025  2.023 0.7855  1.9855 0.7855  L 1.86775 0.794499999999999  C 1.27525 0.839499999999999  0.1015 0.927249999999999  0.121 1.40725  C 0.121 1.8355  1.2145 1.94275  1.6855 1.9855  C 3.1 2.07175  5.15725 1.94275  5.821 1.45  C 5.92825 1.3855  6.121 1.25725  6.07825 1.17175  C 5.02825 1.3645  3.50725 1.47175  2.2645 1.40725  C 1.9645 1.40725  1.64275 1.40725  1.42825 1.2355  Z M 1.771 2.2645  C 1.75075 2.2225  1.79575 2.18125  1.8325 2.14675  C 1.8715 2.11075  1.9015 2.08225  1.8355 2.07175  C 1.57825 2.1355  1 2.2855  1.021 2.60725  C 1.04275 2.8645  1.6 3.0355  1.921 3.1  C 3.1855 3.35725  4.9 3.1645  5.77825 2.75725  C 5.65675 2.737  5.5495 2.64925  5.44075 2.56  C 5.31925 2.46175  5.19625 2.36125  5.05 2.35  C 4.9645 2.33575  4.87 2.36875  4.765 2.4055  C 4.71081168597622 2.4252386869689  4.65575497774796 2.4425064727314  4.6 2.45725  C 3.82825 2.60725  2.2645 2.75725  1.771 2.2645  Z M 2.221 3.34  C 2.24575 3.31375  2.2735 3.2845  2.221 3.27175  L 2.095 3.30475  C 1.7485 3.39325  1.414 3.4795  1.471 3.95725  C 2.39275 4.6645  4.64275 4.42825  5.5855 3.87175  C 5.461 3.8425  5.3665 3.754  5.269 3.66175  C 5.149 3.54925  5.02525 3.433  4.8355 3.42175  C 4.744 3.40675  4.65175 3.44575  4.56025 3.48475  C 4.52275 3.5005  4.48675 3.51625  4.45 3.52825  C 3.7855 3.67825  2.45725 3.85  2.2 3.37825  C 2.19175 3.37075  2.206 3.35575  2.221 3.33925  Z " fill-rule="nonzero" fill="#2365c4" stroke="none" transform="matrix(1 0 0 1 854 388 )" />
  </g>
</svg>