<?xml version="1.0" encoding="utf-8"?>
<svg version="1.1" xmlns:xlink="http://www.w3.org/1999/xlink" width="9px" height="3px" xmlns="http://www.w3.org/2000/svg">
  <g transform="matrix(1 0 0 1 -853 -391 )">
    <path d="M 2.0945 1.18  C 2.2085 1.17325  2.312 1.16725  2.3855 1.15  C 1.89275 0.72175  0.30725 0.9145  0.2855 1.57825  C 0.2645 1.9645  0.75725 2.24275  1.1645 2.37175  C 2.42825 2.8  4.44275 2.82175  6.07175 2.65  C 6.82175 2.5645  8.6645 2.24275  8.57825 1.42825  C 8.5355 1.2145  8.34275 1.0645  8.12825 1.04275  C 8.3 1.79275  6.92825 2.02825  6.2 2.1145  C 4.6145 2.2855  2.70725 2.24275  1.7645 1.87825  C 1.59275 1.8145  1.3355 1.64275  1.35725 1.49275  C 1.38875 1.225  1.7795 1.20025  2.0945 1.18075  Z " fill-rule="nonzero" fill="#2365c4" stroke="none" transform="matrix(1 0 0 1 853 391 )" />
  </g>
</svg>