<?xml version="1.0" encoding="utf-8"?>
<svg version="1.1" xmlns:xlink="http://www.w3.org/1999/xlink" width="9px" height="7px" xmlns="http://www.w3.org/2000/svg">
  <g transform="matrix(1 0 0 1 -854 -388 )">
    <path d="M 5.1145 6.59275  C 5.1145 6.57175  3.85 6.57175  3.85 6.57175  C 2.75725 6.44275  1.70725 6.29275  0.82825 5.90725  C 3.14275 6.4645  6.52825 6.42175  8.15725 5.24275  C 8.1805 5.2255  8.2045 5.203  8.22775 5.17975  C 8.2915 5.11975  8.35825 5.056  8.4355 5.07175  C 8.07325 6.15925  6.79225 6.34675  5.56225 6.52525  C 5.41225 6.54775  5.26225 6.5695  5.1145 6.59275  Z M 6.12175 3.25  C 6.9355 3.20725  8.02825 2.62825  7.9855 1.62175  C 7.9645 0.742750000000001  6.9355 0.550000000000001  6.3355 1.0645  C 6.80725 0.95725  7.2145 1.17175  7.3 1.49275  C 7.44025 2.176  6.80725 2.6875  6.37225 3.0385  C 6.27475 3.11725  6.18775 3.187  6.12175 3.25  Z " fill-rule="nonzero" fill="#2365c4" stroke="none" transform="matrix(1 0 0 1 854 388 )" />
  </g>
</svg>