<?xml version="1.0" encoding="utf-8"?>
<svg version="1.1" xmlns:xlink="http://www.w3.org/1999/xlink" width="12px" height="12px" xmlns="http://www.w3.org/2000/svg">
  <g transform="matrix(1 0 0 1 -913 -383 )">
    <path d="M 0.744140625 11.255859375  L 0.744140625 0.744140625  L 11.255859375 0.744140625  L 11.255859375 11.255859375  L 0.744140625 11.255859375  Z M 10.37578125 8.71875  L 10.39453125 8.74921875  C 10.318359375 8.269921875  10.00546875 7.866796875  9.0796875 7.490625  C 8.757421875 7.339453125  8.398828125 7.233984375  8.2921875 6.99140625  C 8.25234375 6.847265625  8.246484375 6.767578125  8.272265625 6.68203125  C 8.337890625 6.399609375  8.673046875 6.3140625  8.935546875 6.392578125  C 9.106640625 6.4453125  9.263671875 6.5765625  9.36328125 6.786328125  C 9.815625 6.48984375  9.815625 6.48984375  10.13203125 6.294140625  C 10.013671875 6.11015625  9.955078125 6.03046875  9.875390625 5.951953125  C 9.6 5.64375  9.23203125 5.485546875  8.634375 5.499609375  L 8.325 5.53828125  C 8.028515625 5.6109375  7.747265625 5.76796875  7.576171875 5.97890625  C 7.076953125 6.544921875  7.22109375 7.529296875  7.82578125 7.937109375  C 8.4234375 8.38359375  9.29765625 8.48203125  9.41015625 8.902734375  C 9.515625 9.41484375  9.029296875 9.57890625  8.548828125 9.5203125  C 8.19375 9.441796875  7.996875 9.263671875  7.780078125 8.935546875  L 6.978515625 9.39609375  C 7.069921875 9.605859375  7.175390625 9.6984375  7.33359375 9.88125  C 8.0953125 10.65  10.00078125 10.611328125  10.34296875 9.441796875  C 10.355859375 9.401953125  10.4484375 9.132421875  10.37578125 8.71875  Z M 6.460546875 5.59921875  L 6.460546875 5.57578125  L 5.476171875 5.57578125  C 5.476171875 6.42421875  5.47265625 7.26796875  5.47265625 8.11875  C 5.47265625 8.6578125  5.50078125 9.153515625  5.41171875 9.305859375  C 5.267578125 9.608203125  4.894921875 9.56953125  4.726171875 9.515625  C 4.552734375 9.430078125  4.46484375 9.31171875  4.362890625 9.140625  C 4.334765625 9.094921875  4.31484375 9.055078125  4.3078125 9.055078125  L 3.50859375 9.547265625  C 3.6421875 9.82265625  3.83671875 10.060546875  4.088671875 10.21171875  C 4.463671875 10.435546875  4.96640625 10.50703125  5.49375 10.388671875  C 5.837109375 10.290234375  6.132421875 10.086328125  6.287109375 9.77109375  C 6.5109375 9.36328125  6.462890625 8.8640625  6.460546875 8.305078125  C 6.465234375 7.405078125  6.460546875 6.505078125  6.460546875 5.59921875  Z " fill-rule="nonzero" fill="#ffffff" stroke="none" transform="matrix(1 0 0 1 913 383 )" />
  </g>
</svg>