<?xml version="1.0" encoding="utf-8"?>
<svg version="1.1" xmlns:xlink="http://www.w3.org/1999/xlink" width="12px" height="7px" xmlns="http://www.w3.org/2000/svg">
  <g transform="matrix(1 0 0 1 -779 -491 )">
    <path d="M 5.65475169262552 0.6639326  C 5.65475169262552 0.954407660670387  5.88448416840584 1.19286587846797  6.17475750989011 1.20368937582418  C 6.18146328104388 1.2039394156521  6.18817312957286 1.20406446813187  6.19488356075739 1.20406446813187  C 6.49319015442423 1.20406446813187  6.73501542888925 0.962239193666848  6.73501542888925 0.6639326  C 6.73501542888925 0.365626006333152  6.49319015442423 0.123800731868132  6.19488356075739 0.123800731868132  C 6.18817312957286 0.123800731868132  6.18146328104388 0.123925784347905  6.17475750989011 0.124175824175824  C 5.88448416840584 0.134999321532029  5.65475169262552 0.373457539329613  5.65475169262552 0.6639326  Z M 3.95046447032967 1.59228424835165  L 3.10875897362637 1.59228424835165  L 2.1725304 3.6425348  L 0.334581685714286 3.6425348  L 0 4.35520879340659  L 1.84695091648352 4.35520879340659  L 0.733679123076923 6.79405421098901  L 1.5761347978022 6.79405421098901  L 3.95046447032967 1.59153406373626  Z M 7.83641318901099 1.59228424835165  L 8.67886886373626 1.59228424835165  L 6.30453919120879 6.79480439560439  L 5.46133333186813 6.79480439560439  L 6.57535530989011 4.35520879340659  L 6.9009348 3.6425348  L 7.83716336703297 1.59228424835165  Z M 3.09450549230769 4.35670915604396  L 3.09525567692308 4.35520879340659  L 5.17551355384615 4.35520879340659  C 5.72314725494506 4.35520879340659  6.21751794725275 4.0296293032967  6.43357069450549 3.52625640879121  L 6.45457582417582 3.47599413846154  C 6.52567295680774 3.31002228759151  6.56233224306588 3.13134329517661  6.56233224306588 2.95078455805845  C 6.56233224306588 2.2141329971821  5.96515816218399 1.61695891630021  5.22850660130764 1.61695891630021  C 5.22359525407169 1.61695891630021  5.21868394429241 1.61698604278239  5.2137728967033 1.61704029450549  L 4.87919121098901 2.27270036923077  L 5.1822652021978 2.29070476043956  C 5.54683953259599 2.31243407351442  5.83137123783943 2.61442933623133  5.83137123783943 2.97965064644199  C 5.83137123783943 3.07043820337529  5.81345905859741 3.16033373399167  5.7786608043956 3.24418754725275  C 5.67854628969934 3.48610493279449  5.44257950350074 3.64390956985543  5.18076483296703 3.64403516263736  L 3.42908717802198 3.64403516263736  L 3.09450549230769 4.35670915604396  Z M 9.89491575164835 4.35520879340659  L 9.89641611428571 4.35520879340659  L 7.81615824395604 4.35520879340659  L 8.15073992967033 3.6425348  L 9.9016674 3.6425348  C 10.1634813164835 3.6425348  10.3990388307692 3.48499634065934  10.4995633714286 3.24343736263736  C 10.5341633919105 3.15979009307708  10.5519705097297 3.07015336855366  10.5519705097297 2.97963250288036  C 10.5519705097297 2.61452841720033  10.2676154780908 2.31258754090692  9.90316776263736 2.29070476043956  L 9.60009377142857 2.27195018461538  L 9.93467545714286 1.61629010989011  C 9.93980212695963 1.61623098915694  9.94492909504421 1.61620142805332  9.95005610573966 1.61620142805332  C 10.686707666616 1.61620142805332  11.2838817474979 2.21337550893522  11.2838817474979 2.95002706981157  C 11.2838817474979 3.1311383316388  11.2469978037756 3.31035242788141  11.1754783912088 3.47674432307692  L 11.1544732615385 3.52625640879121  C 10.9383155794649 4.02971530889262  10.4428159578857 4.35581839641262  9.89491575164835 4.35520879340659  Z M 10.9455472549451 0.14430187504309  C 11.2360223156154 0.14430187504309  11.474480533413 0.374034350823416  11.4853040307692 0.664307692307692  C 11.4855540705972 0.671013463461482  11.4856791230769 0.677723311990411  11.4856791230769 0.684433743174958  C 11.4856791230769 0.982740336841806  11.2438538486119 1.22456561130683  10.9455472549451 1.22456561130683  C 10.6472406612782 1.22456561130683  10.4054153868132 0.982740336841806  10.4054153868132 0.684433743174958  C 10.4054153868132 0.677723311990411  10.405540439293 0.671013463461482  10.4057904791209 0.664307692307692  C 10.4166139764771 0.374034350823417  10.6550721942747 0.14430187504309  10.9455472549451 0.14430187504309  Z " fill-rule="nonzero" fill="#ffffff" stroke="none" transform="matrix(1 0 0 1 779 491 )" />
  </g>
</svg>