<?xml version="1.0" encoding="utf-8"?>
<svg version="1.1" xmlns:xlink="http://www.w3.org/1999/xlink" width="12px" height="12px" xmlns="http://www.w3.org/2000/svg">
  <g transform="matrix(1 0 0 1 -923 -453 )">
    <path d="M 1.67584700487805 10.1359791687805  C -0.61456181804477 7.7612992517956  -0.5486186181351 3.98018310278404  1.82320165463415 1.68681312  C 2.93660422563761 0.60867107578062  4.42569746208394 0.00585553704527749  5.97555408533355 0.00585553704527749  C 7.59753964398222 0.00585553704527749  9.14968657155005 0.665916910814989  10.2748652487805 1.83416778146341  C 10.5345027198302 1.48843807031358  10.7501145438139 1.11174659598738  10.9167321365854 0.71277388097561  C 11.6659930887805 3.00551240195122  12.1255398087805 4.93111306536585  11.9507122536585 6.42214236878049  C 11.7301345166099 9.549354283276  9.1288836238853 11.9735888897427  5.99390214128541 11.9735888897427  C 4.58545105285712 11.9735888897427  3.2223282747401 11.475756250028  2.14538387121951 10.5680529834146  L 2.0954331395122 10.5255948643902  L 2.0704577795122 10.4956244253659  C 2.04487520279578 10.4821215585283  2.02062472808365 10.4662333187734  1.99802922146341 10.4481712390244  L 1.92310311804878 10.3707476019512  C 1.84491885365936 10.3070594850058  1.77068773434003 10.2386667693839  1.70082236487805 10.1659496078049  L 1.67584700487805 10.1359791687805  Z M 2.69234437463415 9.71639303414634  L 2.71232465560976 9.71639303414634  C 2.617461342109 9.62369007512024  2.49008876534706 9.57178793342508  2.35745058509515 9.57178793342508  C 2.07702845920554 9.57178793342508  1.849701410461 9.79911498216962  1.849701410461 10.0795371080592  C 1.849701410461 10.2140100923959  1.90304545913335 10.3429914482355  1.99802922146341 10.4381810926829  L 2.09293560585366 10.5230973307317  C 2.30606359331342 10.6729064672423  2.59853704215968 10.6337650382913  2.76477293268293 10.4331860136585  C 2.93714122971994 10.2136038349406  2.90515542417392 9.89705465217226  2.69234437463415 9.71639303414634  Z M 10.8542937131707 1.3496456897561  L 10.8542937131707 1.32716786341463  C 10.2374021970732 2.62338931902439  8.70641230829268 3.60991623804878  7.38771302634146 3.91961077463415  C 6.13894476878049 4.21432008585366  5.05501392 3.96956150634146  3.90864465951219 4.41911808  C 1.29372392195122 5.41813269073171  1.34367465365854 8.52756565463415  2.77226553365854 9.23187095414634  L 2.85967931707317 9.27932414048781  C 2.85967931707317 9.27932414048781  3.89365943414634 9.07452614634146  4.91515187121951 8.80479220682927  L 5.00256565463415 8.77981683512195  C 5.41216164292683 8.66992522536586  5.81426501853658 8.55004348097561  6.14144230243902 8.43016172487805  C 7.84476221268292 7.80078251707317  9.71791459902439 6.24481726829269  10.3348061268293 4.43410329365854  C 10.0151214556098 6.30975322536585  8.39921532878049 8.12296473365854  6.7833091902439 8.94964932292683  C 5.91916154926829 9.39670836292683  5.24482668878049 9.49660982634146  3.83371855609756 9.99611712  C 3.66138853463415 10.0585555317073  3.52652156487805 10.1184964097561  3.52652156487805 10.1184964097561  L 3.64640332097561 10.1184964097561  C 3.96109292487805 10.0785358243902  4.24081701073171 10.0610530653659  4.24081701073171 10.0610530770732  C 6.25133391219512 9.96115161365854  9.41071760780488 10.6279938614634  10.879269084878 8.66742769170732  C 12.3777910009756 6.6693984702439  11.5436137990244 3.42260100292683  10.8542937131707 1.3496456897561  Z " fill-rule="nonzero" fill="#ffffff" stroke="none" transform="matrix(1 0 0 1 923 453 )" />
  </g>
</svg>