<?xml version="1.0" encoding="utf-8"?>
<svg version="1.1" xmlns:xlink="http://www.w3.org/1999/xlink" width="11px" height="10px" xmlns="http://www.w3.org/2000/svg">
  <g transform="matrix(1 0 0 1 -924 -454 )">
    <path d="M 1.71482220097561 8.71639303414634  L 1.71232465560976 8.71639303414634  C 1.92513570883698 8.89705464880661  1.95712151958874 9.21360383192689  1.78475322536585 9.43318601365854  C 1.68827840179925 9.54733988509848  1.54640937732858 9.61319006722826  1.39694868702196 9.61319006722826  C 1.11652656113235 9.61319006722826  0.889199512387811 9.38586301848372  0.889199512387811 9.10544089259411  C 0.889199512387811 8.99148799459734  0.927531646219235 8.88084764000727  0.998029221463415 8.79131912585366  C 1.09266070694099 8.669591478575  1.23820385546021 8.59838764029862  1.39238796020415 8.59838764029862  C 1.5104333506055 8.59838764029862  1.62466427615601 8.64019419696867  1.71482220097561 8.71639303414634  Z M 6.38771302634146 2.92210830829268  C 7.70641230829268 2.60991623804878  9.23989973073171 1.62338931902439  9.85429371317073 0.327167863414634  C 10.5436137873171 2.41261085658537  11.3827860682927 5.6444231102439  9.87926908487805 7.64494986536585  C 8.41071760780488 9.60551603512195  5.2438412995122 8.93867378731707  3.2458120897561 9.03857525073171  C 3.2458120897561 9.03857525073171  2.96608800390244 9.05855554341463  2.65139838829268 9.09601858341463  L 2.53151664390244 9.09601858341463  C 2.53151664390244 9.09601858341463  2.66638361365854 9.03607770536585  2.83871363512195 8.97363929365854  C 4.24482668878049 8.49660982634146  4.91916154926829 8.39670836292683  5.7833091902439 7.95214685658537  C 7.39921531707317 7.12546226731707  9.01512144390244 5.31225075902439  9.33480612682927 3.43660082731707  C 8.71791461073171 5.23732465560976  6.83726961170732 6.79328991609756  5.14144230243902 7.43265925853659  C 4.0654152702083 7.78084020799535  2.96954052850591 8.06439988608579  1.85967931707317 8.28182168585366  L 1.77476307902439 8.23436848780488  C 0.343674653658536 7.53006318829268  0.293723921951219 4.42063022439024  2.90864465951219 3.42161561365854  C 4.05501392 2.97955165268293  5.14144231414634 3.22431023219512  6.38771302634146 2.92210830829268  Z " fill-rule="nonzero" fill="#82b85e" stroke="none" transform="matrix(1 0 0 1 924 454 )" />
  </g>
</svg>