<?xml version="1.0" encoding="utf-8"?>
<svg version="1.1" xmlns:xlink="http://www.w3.org/1999/xlink" width="10px" height="12px" xmlns="http://www.w3.org/2000/svg">
  <g transform="matrix(1 0 0 1 -886 -488 )">
    <path d="M 5.0029697890625 1.74162776953125  L 5.0025947890625 0  L 1.476062234375 3.5265325546875  C 0.54017877921821 4.4529475125262  0.0136016262078562 5.71513222718797  0.0136016262078562 7.03199308382525  C 0.0136016262078562 8.34867099516106  0.540032898078391 9.61069600871227  1.475687234375 10.5370823671875  C 2.40247719176263 11.4733408070094  3.66466190390401 11.9999179577173  4.98152275765401 11.9999179577173  C 6.29820066610225 11.9999179577173  7.56022567713272 11.4734866881491  8.48661203515625 10.5378323554688  C 10.478444984375 8.5873897265625  10.479569984375 5.43522158203125  8.52917421875 3.52618100390625  L 7.65742283984375 4.3975573828125  C 9.1096699296875 5.84983962890625  9.1096699296875 8.2141620234375  7.65737596484375 9.6664442578125  C 6.2054335625 11.1183866601563  3.84075960546875 11.1183866601563  2.38846565234375 9.6664442578125  C 0.936488093749999 8.21416201171875  0.936488093749999 5.84945291015625  2.38843049609375 4.3975339453125  L 4.71213599609375 2.07422687109375  L 5.0029697890625 1.74162776953125  Z M 7.45006109375 2.6133908671875  C 7.45000286268037 2.24686458097573  7.15288915339926 1.94975087169463  6.7863628671875 1.949692640625  C 6.41983658097573 1.94975087169463  6.12272287169463 2.24686458097573  6.122664640625 2.6133908671875  C 6.12272287816453 2.97991714882281  6.41983658555116 3.27703085096338  6.7863628671875 3.27708908203125  C 7.15288914882384 3.27703085096338  7.45000285621046 2.97991714882281  7.45006109375 2.6133908671875  Z " fill-rule="nonzero" fill="#ffffff" stroke="none" transform="matrix(1 0 0 1 886 488 )" />
  </g>
</svg>