<?xml version="1.0" encoding="utf-8"?>
<svg version="1.1" xmlns:xlink="http://www.w3.org/1999/xlink" width="9px" height="9px" xmlns="http://www.w3.org/2000/svg">
  <g transform="matrix(1 0 0 1 -962 -488 )">
    <path d="M 2.94766845703125 7.36628173828125  C 2.94766845703125 6.63372216808594  3.49418115222656 5.95348828125  4.29650830078125 5.80813916015625  C 4.40115966785156 5.790697265625  4.50581103515625 5.7790693359375  4.61046240234375 5.77906933605469  L 4.52325292980469 5.77906933605469  L 7.35465380859375 5.77906933605469  C 7.4767470703125 5.77906933605469  7.5930263671875 5.76162744152344  7.70930566417969 5.73255761730469  C 8.2325625 5.58720849621094  8.61628417980469 5.12209130871094  8.61628417980469 4.54650878894531  L 8.61628417980469 2.16859716796875  C 8.61628417980469 1.49417724609375  8.04070166027344 0.98254833984375  7.35465380859375 0.872083007695313  C 6.9186064453125 0.802315429570313  6.28488427734375 0.767431640625  5.85465087890625 0.767431640625  C 5.42441748035156 0.767431640625  5.0116259765625 0.80812939453125  4.64534619140625 0.872083007695313  C 3.57557666015625 1.05812988269531  3.38371582019531 1.44766552734375  3.38371582019531 2.16859716796875  L 3.38371582019531 2.94766845703125  L 6 2.94766845703125  L 6 3.38371582019531  L 2.534876953125 3.38371582019531  C 1.56394482421875 3.38371582019531  0.77324560546875 4.54650878894531  0.767431640625 5.976744140625  L 0.767431640625 6  C 0.767431640625 6.26162841796875  0.7906875 6.51162890625  0.84301318359375 6.7441875  C 1.05812988269531 7.82558496105469  1.73254980457031 8.61628417980469  2.534876953125 8.61628417980469  L 2.94766845703125 8.61628417980469  L 2.94766845703125 7.36628173828125  Z M 5.05232373046875 2.00580615234375  C 5.046509765625 2.27324853527344  4.83720703125 2.48255126964844  4.57557861328125 2.48255126953125  C 4.3139501953125 2.48255126953125  4.09883349597656 2.2674345703125  4.10464746105469 2.00580615234375  C 4.10464746105469 1.744177734375  4.31395019542969 1.52906103503906  4.57557861328125 1.52906103515625  C 4.83720703113281 1.52906103527344  5.05232373058594 1.744177734375  5.05232373046875 2.00580615234375  Z " fill-rule="nonzero" fill="#0075aa" stroke="none" transform="matrix(1 0 0 1 962 488 )" />
  </g>
</svg>