<?xml version="1.0" encoding="utf-8"?>
<svg version="1.1" xmlns:xlink="http://www.w3.org/1999/xlink" width="9px" height="9px" xmlns="http://www.w3.org/2000/svg">
  <g transform="matrix(1 0 0 1 -965 -491 )">
    <path d="M 8.232568359375 3  C 8.232568359375 2.68023193359375  8.19187060546875 2.372091796875  8.12210302734375 2.08720751953125  C 7.87210253917969 1.09301953125  7.22675244140625 0.383715820195313  6.465123046875 0.383715820195313  L 6.05233154296875 0.383715820195313  L 6.05233154296875 1.49418310546875  C 6.05233154296875 2.418603515625  5.44767919921875 3.08720947277344  4.70349169921875 3.20348876953125  C 4.62791015625 3.21511669910156  4.55232861316406 3.2209306640625  4.47674707042969 3.22093066417969  L 1.64534619140625 3.22093066417969  C 1.5232529296875 3.22093066417969  1.4069736328125 3.23837255871094  1.29069433605469 3.26744238292969  C 0.767437500234375 3.40697753917969  0.383715820429687 3.83721093773438  0.383715820429687 4.40116552734375  L 0.383715820429687 6.77907714855469  C 0.383715820429687 7.45349707042969  1.06394970714844 7.85466064464844  1.73255566394531 8.046521484375  C 2.52906884753906 8.279080078125  3.40116357410156 8.31977783203125  4.36046777355469 8.046521484375  C 4.99418994152344 7.86628857421875  5.61628417980469 7.50000878917969  5.61628417957031 6.77907714832031  L 5.61628417957031 6.05814550769531  L 3 6.05814550769531  L 3 5.61628417980469  L 6.465123046875 5.61628417980469  C 7.15117089855469 5.61628417980469  7.75000927734375 5.03488769542969  8.04070751953125 4.186048828125  C 8.16280078125 3.83139697265625  8.232568359375 3.43023339832031  8.232568359375 3  Z M 3.93604833984375 6.930240234375  C 3.9418623046875 6.66861181640625  4.1511650390625 6.45349511707031  4.41279345703125 6.45349511730469  C 4.674421875 6.45349511730469  4.883724609375 6.66861181652344  4.883724609375 6.930240234375  C 4.883724609375 7.19186865234375  4.66860791015625 7.40698535167969  4.41279345703125 7.40698535167969  C 4.1511650390625 7.40698535167969  3.93604833972656 7.19186865246094  3.93604833984375 6.930240234375  Z " fill-rule="nonzero" fill="#ffd400" stroke="none" transform="matrix(1 0 0 1 965 491 )" />
  </g>
</svg>