<?xml version="1.0" encoding="utf-8"?>
<svg version="1.1" xmlns:xlink="http://www.w3.org/1999/xlink" width="18px" height="20px" xmlns="http://www.w3.org/2000/svg">
  <g transform="matrix(1 0 0 1 -170 -662 )">
    <path d="M 17.8815789473684 9.00793650018601  C 17.8815789473684 13.9389880952381  10.2335526238692 19.9206349051339  9 19.9206349283854  C 7.76644737613076 19.9206349283854  0.118421052631579 13.9389880952381  0.118421052631579 9.00793650018601  C 0.118421052631579 4.07688490513393  4.09490130807977 0.0793650716145834  9 0.0793650716145834  C 13.9050986919202 0.0793650716145834  17.8815789473684 4.07688490513393  17.8815789473684 9.00793650018601  Z M 6.28618421823602 9.00793650018601  C 6.28618421823602 10.5146329287574  7.50123355263158 11.7361110956101  9 11.7361111188616  C 10.4987664473684 11.7361111188616  11.713815781764 10.5146329520089  11.713815781764 9.00793650018601  C 11.713815781764 7.50124004836309  10.4987664473684 6.27976190476191  9 6.27976190476191  C 7.50123355263158 6.27976190476191  6.28618421823602 7.50124007161458  6.28618421823602 9.00793650018601  Z " fill-rule="nonzero" fill="#efb336" stroke="none" transform="matrix(1 0 0 1 170 662 )" />
  </g>
</svg>