<?xml version="1.0" encoding="utf-8"?>
<svg version="1.1" xmlns:xlink="http://www.w3.org/1999/xlink" width="30px" height="30px" xmlns="http://www.w3.org/2000/svg">
  <g transform="matrix(1 0 0 1 -550 -1348 )">
    <path d="M 0 21.2946428571429  C 0 18.2254464285714  1.43507972665148 15.625  4.30523917995444 13.4933035714286  C 4.21412300683371 13.28125  4.16856492027335 12.9910714285714  4.16856492027335 12.6227678571429  C 4.16856492027335 12.3995535714286  4.23120728929385 12.1261160714286  4.35649202733485 11.8024553571429  C 4.48177676537586 11.4787946428571  4.61845102505695 11.2276785714286  4.76651480637813 11.0491071428571  C 4.75512528473804 10.8035714285714  4.79783599088838 10.5078125  4.89464692482916 10.1618303571429  C 4.99145785876993 9.81584821428571  5.11958997722096 9.57589285714286  5.27904328018223 9.44196428571429  C 5.27904328018223 7.890625  5.80580865603645 6.28069196428571  6.85933940774487 4.61216517857143  C 7.9128701594533 2.94363839285714  9.15148063781321 1.77455357142857  10.5751708428246 1.10491071428571  C 12.1583143507973 0.368303571428571  14.003416856492 0  16.1104783599089 0  C 17.625284738041 0  19.1400911161731 0.306919642857146  20.6548974943052 0.920758928571429  C 21.2129840546697 1.15513392857143  21.7255125284738 1.42299107142857  22.1924829157175 1.72433035714286  C 22.6594533029613 2.02566964285714  23.0637813211845 2.33816964285714  23.4054669703872 2.66183035714286  C 23.74715261959 2.98549107142857  24.0603644646925 3.36495535714286  24.3451025056948 3.80022321428571  C 24.629840546697 4.23549107142857  24.869020501139 4.6484375  25.0626423690205 5.0390625  C 25.2562642369021 5.4296875  25.4413439635535 5.90122767857143  25.6178815489749 6.45368303571429  C 25.7944191343964 7.00613839285714  25.9396355353075 7.50558035714286  26.0535307517084 7.95200892857143  C 26.1674259681093 8.3984375  26.2927107061503 8.9453125  26.4293849658314 9.59263392857143  L 26.4464692482916 9.67633928571429  C 27.0728929384966 10.6026785714286  27.3861047835991 11.4397321428571  27.3861047835991 12.1875  C 27.3861047835991 12.34375  27.3348519362187 12.5669642857143  27.2323462414579 12.8571428571429  C 27.129840546697 13.1473214285714  27.0785876993166 13.359375  27.0785876993166 13.4933035714286  C 27.0785876993166 13.5044642857143  27.0871298405467 13.5239955357143  27.1042141230068 13.5518973214286  C 27.121298405467 13.5797991071429  27.1412300683371 13.6077008928571  27.1640091116173 13.6356026785714  C 27.1867881548975 13.6635044642857  27.1981776765376 13.6830357142857  27.1981776765376 13.6941964285714  C 28.0751708428246 14.9665178571429  28.7613895216401 16.1635044642857  29.2568337129841 17.28515625  C 29.752277904328 18.4068080357143  30 19.5703125  30 20.7756696428571  C 30 21.2555803571429  29.8889521640091 21.8136160714286  29.6668564920273 22.4497767857143  C 29.4447608200456 23.0859375  29.128701594533 23.4040178571429  28.7186788154897 23.4040178571429  C 28.6161731207289 23.4040178571429  28.505125284738 23.3621651785714  28.3855353075171 23.2784598214286  C 28.2659453302961 23.1947544642857  28.1577448747153 23.0970982142857  28.0609339407745 22.9854910714286  C 27.9641230068337 22.8738839285714  27.8559225512528 22.7287946428571  27.7363325740319 22.5502232142857  C 27.6167425968109 22.3716517857143  27.5256264236902 22.2237723214286  27.4629840546697 22.1065848214286  C 27.4003416856492 21.9893973214286  27.3234624145786 21.8443080357143  27.2323462414579 21.6713169642857  C 27.1412300683371 21.4983258928571  27.0899772209567 21.4006696428571  27.0785876993166 21.3783482142857  C 27.0671981776765 21.3671875  27.0501138952164 21.3616071428571  27.0273348519362 21.3616071428571  L 26.9419134396355 21.4285714285714  C 26.2699316628702 23.1473214285714  25.5182232346241 24.3917410714286  24.6867881548975 25.1618303571429  C 24.9145785876993 25.3850446428571  25.2648063781321 25.5998883928571  25.7374715261959 25.8063616071429  C 26.2101366742597 26.0128348214286  26.6030751708428 26.2444196428571  26.9162870159453 26.5011160714286  C 27.2294988610478 26.7578125  27.4316628701595 27.1205357142857  27.5227790432802 27.5892857142857  C 27.5 27.6339285714286  27.4772209567198 27.7232142857143  27.4544419134396 27.8571428571429  C 27.4316628701595 27.9910714285714  27.3917995444191 28.0915178571429  27.3348519362187 28.1584821428571  C 26.6059225512528 29.2410714285714  24.8861047835991 29.7823660714286  22.1753986332574 29.7823660714286  C 21.5717539863326 29.7823660714286  20.9424829157175 29.7321428571429  20.2875854214123 29.6316964285714  C 19.6326879271071 29.53125  19.0746013667426 29.4196428571429  18.6133257403189 29.296875  C 18.1520501138952 29.1741071428571  17.5569476082005 29.0066964285714  16.8280182232346 28.7946428571429  C 16.6571753986333 28.7388392857143  16.5261958997722 28.6997767857143  16.4350797266515 28.6774553571429  C 16.2756264236902 28.6328125  16.0136674259681 28.6077008928571  15.6492027334852 28.6021205357143  C 15.2847380410023 28.5965401785714  15.0569476082005 28.5881696428571  14.9658314350797 28.5770089285714  C 14.498861047836 29.0792410714286  13.7727790432802 29.4419642857143  12.7875854214123 29.6651785714286  C 11.8023917995444 29.8883928571429  10.8428246013667 30  9.90888382687927 30  C 9.51025056947608 30  9.11731207289294 29.9916294642857  8.73006833712984 29.9748883928571  C 8.34282460136674 29.9581473214286  7.81321184510251 29.9079241071429  7.14123006833713 29.82421875  C 6.46924829157175 29.7405133928571  5.89407744874715 29.6261160714286  5.41571753986333 29.4810267857143  C 4.9373576309795 29.3359375  4.51309794988611 29.1127232142857  4.14293849658314 28.8113839285714  C 3.77277904328018 28.5100446428571  3.5876993166287 28.1529017857143  3.5876993166287 27.7399553571429  C 3.5876993166287 27.2935267857143  3.64464692482916 26.9614955357143  3.75854214123007 26.7438616071429  C 3.87243735763098 26.5262276785714  4.10592255125285 26.2555803571429  4.45899772209567 25.9319196428571  C 4.58428246013668 25.9095982142857  4.81492027334852 25.8370535714286  5.15091116173121 25.7142857142857  C 5.4869020501139 25.5915178571429  5.76879271070615 25.5245535714286  5.99658314350797 25.5133928571429  C 6.04214123006834 25.5133928571429  6.12186788154898 25.5022321428571  6.23576309794989 25.4799107142857  C 6.25854214123007 25.4575892857143  6.26993166287016 25.4352678571429  6.26993166287016 25.4129464285714  L 6.23576309794989 25.3627232142857  C 5.68906605922551 25.2399553571429  5.07403189066059 24.6512276785714  4.39066059225513 23.5965401785714  C 3.70728929384966 22.5418526785714  3.29157175398633 21.6685267857143  3.14350797266515 20.9765625  L 3.05808656036446 20.9263392857143  C 3.0125284738041 20.9263392857143  2.94419134396355 21.0379464285714  2.85307517084282 21.2611607142857  C 2.64806378132118 21.71875  2.3376993166287 22.1344866071429  1.92198177676538 22.5083705357143  C 1.50626423690205 22.8822544642857  1.06492027334852 23.0915178571429  0.597949886104784 23.1361607142857  L 0.580865603644647 23.1361607142857  C 0.535307517084282 23.1361607142857  0.501138952164009 23.1110491071429  0.478359908883827 23.0608258928571  C 0.455580865603645 23.0106026785714  0.427107061503417 22.9799107142857  0.392938496583144 22.96875  C 0.130979498861048 22.3660714285714  0 21.8080357142857  0 21.2946428571429  Z " fill-rule="nonzero" fill="#ffffff" stroke="none" transform="matrix(1 0 0 1 550 1348 )" />
  </g>
</svg>