<?xml version="1.0" encoding="utf-8"?>
<svg version="1.1" xmlns:xlink="http://www.w3.org/1999/xlink" width="30px" height="30px" xmlns="http://www.w3.org/2000/svg">
  <g transform="matrix(1 0 0 1 -480 -1348 )">
    <path d="M 7.470703125 2.06137424949967  C 9.76888020833333 0.687124749833221  12.2786458333333 0  15 0  C 17.7213541666667 0  20.2311197916667 0.687124749833221  22.529296875 2.06137424949967  C 24.8274739583333 3.43562374916611  26.6471354166667 5.30020013342228  27.98828125 7.65510340226818  C 29.3294270833333 10.0100066711141  30 12.5817211474316  30 15.3702468312208  C 30 18.7191460973983  29.0462239583333 21.7311541027352  27.138671875 24.4062708472315  C 25.2311197916667 27.0813875917278  22.7669270833333 28.9326217478319  19.74609375 29.9599733155437  C 19.39453125 30.0266844563042  19.1341145833333 29.9799866577718  18.96484375 29.8198799199466  C 18.7955729166667 29.6597731821214  18.7109375 29.4596397598399  18.7109375 29.2194796531021  C 18.7109375 29.1794529686458  18.7141927083333 28.6691127418279  18.720703125 27.6884589726484  C 18.7272135416667 26.707805203469  18.73046875 25.8105403602402  18.73046875 24.996664442962  C 18.73046875 23.7024683122081  18.3919270833333 22.7551701134089  17.71484375 22.1547698465644  C 18.45703125 22.0747164776518  19.1243489583333 21.9546364242829  19.716796875 21.7945296864576  C 20.3092447916667 21.6344229486324  20.9212239583333 21.3742494996664  21.552734375 21.0140093395597  C 22.1842447916667 20.653769179453  22.7115885416667 20.2101400933956  23.134765625 19.6831220813876  C 23.5579427083333 19.1561040693796  23.9029947916667 18.4556370913943  24.169921875 17.5817211474316  C 24.4368489583333 16.707805203469  24.5703125 15.7038025350233  24.5703125 14.5697131420947  C 24.5703125 12.9819879919947  24.0559895833333 11.6077384923282  23.02734375 10.4469646430954  C 23.5091145833333 9.23282188125417  23.45703125 7.87191460973983  22.87109375 6.36424282855237  C 22.5065104166667 6.24416277518346  21.9791666666667 6.31754503002001  21.2890625 6.58438959306204  C 20.5989583333333 6.85123415610407  20 7.1447631754503  19.4921875 7.46497665110073  L 18.75 7.94529686457639  C 17.5390625 7.59839893262175  16.2890625 7.42494996664443  15 7.42494996664443  C 13.7109375 7.42494996664443  12.4609375 7.59839893262175  11.25 7.94529686457639  C 11.0416666666667 7.79853235490327  10.7649739583333 7.6184122748499  10.419921875 7.40493662441628  C 10.0748697916667 7.19146097398265  9.53125 6.9346230820547  8.7890625 6.63442294863242  C 8.046875 6.33422281521014  7.49348958333333 6.24416277518346  7.12890625 6.36424282855237  C 6.54296875 7.87191460973983  6.49088541666667 9.23282188125417  6.97265625 10.4469646430954  C 5.94401041666667 11.6077384923282  5.4296875 12.9819879919947  5.4296875 14.5697131420947  C 5.4296875 15.7038025350233  5.56315104166667 16.704469646431  5.830078125 17.5717144763175  C 6.09700520833333 18.4389593062041  6.43880208333333 19.1394262841895  6.85546875 19.6731154102735  C 7.27213541666667 20.2068045363576  7.79622395833333 20.653769179453  8.427734375 21.0140093395597  C 9.05924479166667 21.3742494996664  9.67122395833333 21.6344229486324  10.263671875 21.7945296864576  C 10.8561197916667 21.9546364242829  11.5234375 22.0747164776518  12.265625 22.1547698465644  C 11.7578125 22.63509006004  11.4388020833333 23.3222148098732  11.30859375 24.216144096064  C 11.03515625 24.3495663775851  10.7421875 24.4496330887258  10.4296875 24.5163442294863  C 10.1171875 24.5830553702468  9.74609375 24.6164109406271  9.31640625 24.6164109406271  C 8.88671875 24.6164109406271  8.46028645833334 24.472981987992  8.037109375 24.1861240827218  C 7.61393229166667 23.8992661774516  7.25260416666667 23.4823215476985  6.953125 22.9352901934623  C 6.70572916666667 22.5083388925951  6.38997395833333 22.1614409606404  6.005859375 21.8945963975984  C 5.62174479166667 21.6277518345564  5.29947916666667 21.4676450967312  5.0390625 21.4142761841227  L 4.6484375 21.3542361574383  C 4.375 21.3542361574383  4.18619791666667 21.3842561707805  4.08203125 21.444296197465  C 3.97786458333333 21.5043362241494  3.9453125 21.581054036024  3.984375 21.6744496330887  C 4.0234375 21.7678452301534  4.08203125 21.8612408272181  4.16015625 21.9546364242829  C 4.23828125 22.0480320213476  4.32291666666667 22.1280853902602  4.4140625 22.1947965310207  L 4.55078125 22.2948632421614  C 4.83723958333333 22.4282855236825  5.12044270833333 22.6817878585724  5.400390625 23.0553702468312  C 5.68033854166667 23.4289526350901  5.88541666666667 23.7691794529686  6.015625 24.076050700467  L 6.2109375 24.5363575717145  C 6.38020833333333 25.0433622414943  6.66666666666667 25.4536357571714  7.0703125 25.7671781187458  C 7.47395833333333 26.0807204803202  7.91015625 26.2808539026017  8.37890625 26.3675783855904  C 8.84765625 26.454302868579  9.30013020833334 26.5010006671114  9.736328125 26.5076717811875  C 10.1725260416667 26.5143428952635  10.5338541666667 26.4909939959973  10.8203125 26.4376250833889  L 11.26953125 26.3575717144763  C 11.26953125 26.8645763842562  11.2727864583333 27.4549699799867  11.279296875 28.1287525016678  C 11.2858072916667 28.8025350233489  11.2890625 29.1661107404937  11.2890625 29.2194796531021  C 11.2890625 29.4596397598399  11.2044270833333 29.6597731821214  11.03515625 29.8198799199466  C 10.8658854166667 29.9799866577718  10.60546875 30.0266844563042  10.25390625 29.9599733155437  C 7.23307291666667 28.9326217478319  4.76888020833333 27.0813875917278  2.861328125 24.4062708472315  C 0.953776041666667 21.7311541027352  0 18.7191460973983  0 15.3702468312208  C 0 12.5817211474316  0.670572916666667 10.0100066711141  2.01171875 7.65510340226818  C 3.35286458333333 5.30020013342228  5.17252604166667 3.43562374916611  7.470703125 2.06137424949967  Z M 5.4296875 22.1147431621081  C 5.546875 22.1947965310207  5.63151041666667 22.1814543028686  5.68359375 22.0747164776518  C 5.72265625 21.9813208805871  5.67708333333333 21.9012675116744  5.546875 21.8345563709139  C 5.41666666666667 21.7945296864576  5.33203125 21.8078719146097  5.29296875 21.8745830553702  C 5.25390625 21.967978652435  5.29947916666667 22.0480320213476  5.4296875 22.1147431621081  Z M 5.9765625 22.6951300867245  C 6.10677083333333 22.8285523682455  6.2109375 22.8485657104736  6.2890625 22.7551701134089  C 6.38020833333333 22.6884589726484  6.3671875 22.5817211474316  6.25 22.4349566377585  C 6.11979166666667 22.3148765843896  6.015625 22.2948632421614  5.9375 22.374916611074  C 5.84635416666667 22.4416277518346  5.859375 22.5483655770514  5.9765625 22.6951300867245  Z M 6.54296875 23.5156771180787  C 6.66015625 23.689126084056  6.77083333333333 23.7358238825884  6.875 23.6557705136758  C 6.9921875 23.5623749166111  6.9921875 23.4356237491661  6.875 23.2755170113409  C 6.77083333333333 23.1020680453636  6.66015625 23.0620413609073  6.54296875 23.155436957972  C 6.42578125 23.2221480987325  6.42578125 23.3422281521014  6.54296875 23.5156771180787  Z M 7.3046875 24.4362908605737  C 7.4609375 24.5963975983989  7.59114583333333 24.6164109406271  7.6953125 24.4963308872582  C 7.79947916666667 24.3895930620414  7.7734375 24.2628418945964  7.6171875 24.1160773849233  C 7.4609375 23.9559706470981  7.33072916666667 23.9359573048699  7.2265625 24.0560373582388  C 7.109375 24.1627751834556  7.13541666666667 24.2895263509006  7.3046875 24.4362908605737  Z M 8.4375 25.1167444963309  C 8.6328125 25.1967978652435  8.75651041666667 25.1567711807872  8.80859375 24.996664442962  C 8.84765625 24.8498999332889  8.76302083333333 24.743162108072  8.5546875 24.6764509673115  C 8.359375 24.6230820547031  8.23567708333333 24.6697798532355  8.18359375 24.8165443629086  C 8.13151041666667 24.9633088725817  8.21614583333333 25.0633755837225  8.4375 25.1167444963309  Z M 9.7265625 25.3168779186124  C 9.93489583333333 25.3168779186124  10.0390625 25.2434956637758  10.0390625 25.0967311541027  C 10.0390625 24.9232821881254  9.92838541666667 24.8498999332889  9.70703125 24.8765843895931  C 9.49869791666667 24.8765843895931  9.39453125 24.9499666444296  9.39453125 25.0967311541027  C 9.39453125 25.2701801200801  9.50520833333333 25.3435623749166  9.7265625 25.3168779186124  Z M 10.8984375 25.1767845230153  C 11.1067708333333 25.1234156104069  11.1979166666667 25.0300200133422  11.171875 24.8965977318212  C 11.1458333333333 24.7498332221481  11.0286458333333 24.6897931954636  10.8203125 24.7164776517678  C 10.6119791666667 24.7565043362241  10.5208333333333 24.8565710473649  10.546875 25.0166777851901  C 10.5729166666667 25.1767845230153  10.6901041666667 25.2301534356238  10.8984375 25.1767845230153  Z " fill-rule="nonzero" fill="#ffffff" stroke="none" transform="matrix(1 0 0 1 480 1348 )" />
  </g>
</svg>