<?xml version="1.0" encoding="utf-8"?>
<svg version="1.1" xmlns:xlink="http://www.w3.org/1999/xlink" width="30px" height="24px" xmlns="http://www.w3.org/2000/svg">
  <g transform="matrix(1 0 0 1 -690 -1351 )">
    <path d="M 28.3258928571429 9.22159090909091  C 28.9620535714286 8.77840909090909  29.5200892857143 8.28409090909091  30 7.73863636363636  L 30 21.2727272727273  C 30 22.0227272727273  29.7377232142857 22.6647727272727  29.2131696428571 23.1988636363636  C 28.6886160714286 23.7329545454545  28.0580357142857 24  27.3214285714286 24  L 2.67857142857143 24  C 1.94196428571429 24  1.31138392857143 23.7329545454545  0.786830357142857 23.1988636363636  C 0.262276785714286 22.6647727272727  0 22.0227272727273  0 21.2727272727273  L 0 7.73863636363636  C 0.491071428571429 8.29545454545454  1.0546875 8.78977272727272  1.69084821428571 9.22159090909091  C 5.73102678571429 12.0170454545455  8.50446428571428 13.9772727272727  10.0111607142857 15.1022727272727  C 10.6473214285714 15.5795454545455  11.1635044642857 15.9517045454545  11.5597098214286 16.21875  C 11.9559151785714 16.4857954545455  12.4832589285714 16.7585227272727  13.1417410714286 17.0369318181818  C 13.8002232142857 17.3153409090909  14.4140625 17.4545454545455  14.9832589285714 17.4545454545455  L 15 17.4545454545455  L 15.0167410714286 17.4545454545455  C 15.5859375 17.4545454545455  16.1997767857143 17.3153409090909  16.8582589285714 17.0369318181818  C 17.5167410714286 16.7585227272727  18.0440848214286 16.4857954545455  18.4402901785714 16.21875  C 18.8364955357143 15.9517045454545  19.3526785714286 15.5795454545455  19.9888392857143 15.1022727272727  C 21.8861607142857 13.7045454545455  24.6651785714286 11.7443181818182  28.3258928571429 9.22159090909091  Z M 29.2047991071429 0.801136363636362  C 29.7349330357143 1.33522727272727  30 1.97727272727273  30 2.72727272727273  C 30 3.625  29.7265625 4.48295454545455  29.1796875 5.30113636363636  C 28.6328125 6.11931818181818  27.9520089285714 6.81818181818182  27.1372767857143 7.39772727272727  C 22.9408482142857 10.3636363636364  20.3292410714286 12.2102272727273  19.3024553571429 12.9375  C 19.1908482142857 13.0170454545455  18.9536830357143 13.1903409090909  18.5909598214286 13.4573863636364  C 18.2282366071429 13.7244318181818  17.9268973214286 13.9403409090909  17.6869419642857 14.1051136363636  C 17.4469866071429 14.2698863636364  17.1568080357143 14.4545454545455  16.81640625 14.6590909090909  C 16.4760044642857 14.8636363636364  16.1551339285714 15.0170454545455  15.8537946428571 15.1193181818182  C 15.5524553571429 15.2215909090909  15.2734375 15.2727272727273  15.0167410714286 15.2727272727273  L 15 15.2727272727273  L 14.9832589285714 15.2727272727273  C 14.7265625 15.2727272727273  14.4475446428571 15.2215909090909  14.1462053571429 15.1193181818182  C 13.8448660714286 15.0170454545455  13.5239955357143 14.8636363636364  13.18359375 14.6590909090909  C 12.8431919642857 14.4545454545455  12.5530133928571 14.2698863636364  12.3130580357143 14.1051136363636  C 12.0731026785714 13.9403409090909  11.7717633928571 13.7244318181818  11.4090401785714 13.4573863636364  C 11.0463169642857 13.1903409090909  10.8091517857143 13.0170454545455  10.6975446428571 12.9375  C 9.68191964285714 12.2102272727273  8.21986607142857 11.1732954545455  6.31138392857143 9.82670454545455  C 4.40290178571429 8.48011363636363  3.25892857142857 7.67045454545454  2.87946428571429 7.39772727272727  C 2.1875 6.92045454545454  1.53459821428571 6.26420454545455  0.920758928571429 5.42897727272727  C 0.306919642857143 4.59375  0 3.81818181818182  0 3.10227272727273  C 0 2.21590909090909  0.231584821428572 1.47727272727272  0.694754464285714 0.886363636363638  C 1.15792410714286 0.295454545454543  1.81919642857143 0  2.67857142857143 0  L 27.3214285714286 0  C 28.046875 0  28.6746651785714 0.267045454545451  29.2047991071429 0.801136363636362  Z " fill-rule="nonzero" fill="#ffffff" stroke="none" transform="matrix(1 0 0 1 690 1351 )" />
  </g>
</svg>