<?xml version="1.0" encoding="utf-8"?>
<svg version="1.1" xmlns:xlink="http://www.w3.org/1999/xlink" width="21px" height="20px" xmlns="http://www.w3.org/2000/svg">
  <g transform="matrix(1 0 0 1 -940 -830 )">
    <path d="M 20.7895791583166 17.8053830227743  C 20.9298597194389 17.9434092477571  21 18.1021394064872  21 18.2815734989648  C 21 18.4610075914424  20.9298597194389 18.6197377501725  20.7895791583166 18.7577639751553  L 19.7374749498998 19.7929606625259  C 19.5971943887776 19.9309868875086  19.435871743487 20  19.2535070140281 20  C 19.0711422845691 20  18.9098196392786 19.9309868875086  18.7695390781563 19.7929606625259  L 10.5 11.656314699793  L 2.23046092184369 19.7929606625259  C 2.09018036072144 19.9309868875086  1.92885771543086 20  1.74649298597194 20  C 1.56412825651303 20  1.40280561122245 19.9309868875086  1.2625250501002 19.7929606625259  L 0.210420841683367 18.7577639751553  C 0.0701402805611225 18.6197377501725  0 18.4610075914424  0 18.2815734989648  C 0 18.1021394064872  0.0701402805611225 17.9434092477571  0.210420841683367 17.8053830227743  L 10.0160320641283 8.15734989648033  C 10.1563126252505 8.01932367149758  10.3176352705411 7.95031055900621  10.5 7.95031055900621  C 10.6823647294589 7.95031055900621  10.8436873747495 8.01932367149758  10.9839679358717 8.15734989648033  L 20.7895791583166 17.8053830227743  Z M 20.7895791583166 9.85507246376812  C 20.9298597194389 9.99309868875086  21 10.151828847481  21 10.3312629399586  C 21 10.5106970324362  20.9298597194389 10.6694271911663  20.7895791583166 10.8074534161491  L 19.7374749498998 11.8426501035197  C 19.5971943887776 11.9806763285024  19.435871743487 12.0496894409938  19.2535070140281 12.0496894409938  C 19.0711422845691 12.0496894409938  18.9098196392786 11.9806763285024  18.7695390781563 11.8426501035197  L 10.5 3.70600414078675  L 2.23046092184369 11.8426501035197  C 2.09018036072144 11.9806763285024  1.92885771543086 12.0496894409938  1.74649298597194 12.0496894409938  C 1.56412825651303 12.0496894409938  1.40280561122245 11.9806763285024  1.2625250501002 11.8426501035197  L 0.210420841683367 10.8074534161491  C 0.0701402805611225 10.6694271911663  0 10.5106970324362  0 10.3312629399586  C 0 10.151828847481  0.0701402805611225 9.99309868875086  0.210420841683367 9.85507246376812  L 10.0160320641283 0.20703933747412  C 10.1563126252505 0.0690131124913718  10.3176352705411 0  10.5 0  C 10.6823647294589 0  10.8436873747495 0.0690131124913718  10.9839679358717 0.20703933747412  L 20.7895791583166 9.85507246376812  Z " fill-rule="nonzero" fill="#ffffff" stroke="none" transform="matrix(1 0 0 1 940 830 )" />
  </g>
</svg>